<svg viewBox="0 0 952.5 400" xmlns="http://www.w3.org/2000/svg"><g><g><g><g><g><line x1="94" y1="378" x2="89" y2="378" style="visibility: inherit;" fill="rgb(0, 0, 0)" stroke="rgb(204, 204, 204)" stroke-width="1px"></line><line x1="94" y1="343.6363636363636" x2="89" y2="343.6363636363636" style="visibility: inherit;" fill="rgb(0, 0, 0)" stroke="rgb(204, 204, 204)" stroke-width="1px"></line><line x1="94" y1="309.27272727272725" x2="89" y2="309.27272727272725" style="visibility: inherit;" fill="rgb(0, 0, 0)" stroke="rgb(204, 204, 204)" stroke-width="1px"></line><line x1="94" y1="274.90909090909093" x2="89" y2="274.90909090909093" style="visibility: inherit;" fill="rgb(0, 0, 0)" stroke="rgb(204, 204, 204)" stroke-width="1px"></line><line x1="94" y1="240.54545454545453" x2="89" y2="240.54545454545453" style="visibility: inherit;" fill="rgb(0, 0, 0)" stroke="rgb(204, 204, 204)" stroke-width="1px"></line><line x1="94" y1="206.1818181818182" x2="89" y2="206.1818181818182" style="visibility: inherit;" fill="rgb(0, 0, 0)" stroke="rgb(204, 204, 204)" stroke-width="1px"></line><line x1="94" y1="171.81818181818184" x2="89" y2="171.81818181818184" style="visibility: inherit;" fill="rgb(0, 0, 0)" stroke="rgb(204, 204, 204)" stroke-width="1px"></line><line x1="94" y1="137.45454545454547" x2="89" y2="137.45454545454547" style="visibility: inherit;" fill="rgb(0, 0, 0)" stroke="rgb(204, 204, 204)" stroke-width="1px"></line><line x1="94" y1="103.09090909090907" x2="89" y2="103.09090909090907" style="visibility: inherit;" fill="rgb(0, 0, 0)" stroke="rgb(204, 204, 204)" stroke-width="1px"></line><line x1="94" y1="68.72727272727269" x2="89" y2="68.72727272727269" style="visibility: inherit;" fill="rgb(0, 0, 0)" stroke="rgb(204, 204, 204)" stroke-width="1px"></line><line x1="94" y1="34.363636363636374" x2="89" y2="34.363636363636374" style="visibility: inherit;" fill="rgb(0, 0, 0)" stroke="rgb(204, 204, 204)" stroke-width="1px"></line><line x1="94" y1="0" x2="89" y2="0" style="visibility: inherit;" fill="rgb(0, 0, 0)" stroke="rgb(204, 204, 204)" stroke-width="1px"></line></g><g transform="translate(84, 0)"><text x="0" y="378" dx="0em" dy="0.3em" style="text-anchor: end; visibility: hidden; font-family: &quot;Helvetica Neue&quot;, sans-serif; font-size: 12px; font-weight: 200;" fill="rgb(50, 49, 63)" stroke="none" stroke-width="1px">-2.5e+3</text><text x="0" y="343.6363636363636" dx="0em" dy="0.3em" style="text-anchor: end; visibility: inherit; font-family: &quot;Helvetica Neue&quot;, sans-serif; font-size: 12px; font-weight: 200;" fill="rgb(50, 49, 63)" stroke="none" stroke-width="1px">-2e+3</text><text x="0" y="309.27272727272725" dx="0em" dy="0.3em" style="text-anchor: end; visibility: inherit; font-family: &quot;Helvetica Neue&quot;, sans-serif; font-size: 12px; font-weight: 200;" fill="rgb(50, 49, 63)" stroke="none" stroke-width="1px">-1.5e+3</text><text x="0" y="274.90909090909093" dx="0em" dy="0.3em" style="text-anchor: end; visibility: inherit; font-family: &quot;Helvetica Neue&quot;, sans-serif; font-size: 12px; font-weight: 200;" fill="rgb(50, 49, 63)" stroke="none" stroke-width="1px">-1e+3</text><text x="0" y="240.54545454545453" dx="0em" dy="0.3em" style="text-anchor: end; visibility: inherit; font-family: &quot;Helvetica Neue&quot;, sans-serif; font-size: 12px; font-weight: 200;" fill="rgb(50, 49, 63)" stroke="none" stroke-width="1px">-500</text><text x="0" y="206.1818181818182" dx="0em" dy="0.3em" style="text-anchor: end; visibility: inherit; font-family: &quot;Helvetica Neue&quot;, sans-serif; font-size: 12px; font-weight: 200;" fill="rgb(50, 49, 63)" stroke="none" stroke-width="1px">0</text><text x="0" y="171.81818181818184" dx="0em" dy="0.3em" style="text-anchor: end; visibility: inherit; font-family: &quot;Helvetica Neue&quot;, sans-serif; font-size: 12px; font-weight: 200;" fill="rgb(50, 49, 63)" stroke="none" stroke-width="1px">500</text><text x="0" y="137.45454545454547" dx="0em" dy="0.3em" style="text-anchor: end; visibility: inherit; font-family: &quot;Helvetica Neue&quot;, sans-serif; font-size: 12px; font-weight: 200;" fill="rgb(50, 49, 63)" stroke="none" stroke-width="1px">1e+3</text><text x="0" y="103.09090909090907" dx="0em" dy="0.3em" style="text-anchor: end; visibility: inherit; font-family: &quot;Helvetica Neue&quot;, sans-serif; font-size: 12px; font-weight: 200;" fill="rgb(50, 49, 63)" stroke="none" stroke-width="1px">1.5e+3</text><text x="0" y="68.72727272727269" dx="0em" dy="0.3em" style="text-anchor: end; visibility: inherit; font-family: &quot;Helvetica Neue&quot;, sans-serif; font-size: 12px; font-weight: 200;" fill="rgb(50, 49, 63)" stroke="none" stroke-width="1px">2e+3</text><text x="0" y="34.363636363636374" dx="0em" dy="0.3em" style="text-anchor: end; visibility: inherit; font-family: &quot;Helvetica Neue&quot;, sans-serif; font-size: 12px; font-weight: 200;" fill="rgb(50, 49, 63)" stroke="none" stroke-width="1px">2.5e+3</text><text x="0" y="0" dx="0em" dy="0.3em" style="text-anchor: end; visibility: hidden; font-family: &quot;Helvetica Neue&quot;, sans-serif; font-size: 12px; font-weight: 200;" fill="rgb(50, 49, 63)" stroke="none" stroke-width="1px">3e+3</text></g><line x1="94" y1="0" x2="94" y2="378" fill="rgb(0, 0, 0)" stroke="rgb(204, 204, 204)" stroke-width="1px"></line></g></g><g transform="translate(94, 0)" clip-path="url(#clip_0)"><clipPath id="clip_0"><rect width="858" height="378"></rect></clipPath><g><g><g><line x1="0" y1="0" x2="0" y2="378" fill="rgb(0, 0, 0)" stroke="rgb(60, 60, 60)" stroke-width="1px" opacity="0.25"></line><line x1="78.04545454545455" y1="0" x2="78.04545454545455" y2="378" fill="rgb(0, 0, 0)" stroke="rgb(60, 60, 60)" stroke-width="1px" opacity="0.25"></line><line x1="156.0909090909091" y1="0" x2="156.0909090909091" y2="378" fill="rgb(0, 0, 0)" stroke="rgb(60, 60, 60)" stroke-width="1px" opacity="0.25"></line><line x1="234.13636363636363" y1="0" x2="234.13636363636363" y2="378" fill="rgb(0, 0, 0)" stroke="rgb(60, 60, 60)" stroke-width="1px" opacity="0.25"></line><line x1="312.1818181818182" y1="0" x2="312.1818181818182" y2="378" fill="rgb(0, 0, 0)" stroke="rgb(60, 60, 60)" stroke-width="1px" opacity="0.25"></line><line x1="390.2272727272727" y1="0" x2="390.2272727272727" y2="378" fill="rgb(0, 0, 0)" stroke="rgb(60, 60, 60)" stroke-width="1px" opacity="0.25"></line><line x1="468.27272727272725" y1="0" x2="468.27272727272725" y2="378" fill="rgb(0, 0, 0)" stroke="rgb(60, 60, 60)" stroke-width="1px" opacity="0.25"></line><line x1="546.3181818181818" y1="0" x2="546.3181818181818" y2="378" fill="rgb(0, 0, 0)" stroke="rgb(60, 60, 60)" stroke-width="1px" opacity="0.25"></line><line x1="624.3636363636364" y1="0" x2="624.3636363636364" y2="378" fill="rgb(0, 0, 0)" stroke="rgb(60, 60, 60)" stroke-width="1px" opacity="0.25"></line><line x1="702.409090909091" y1="0" x2="702.409090909091" y2="378" fill="rgb(0, 0, 0)" stroke="rgb(60, 60, 60)" stroke-width="1px" opacity="0.25"></line><line x1="780.4545454545454" y1="0" x2="780.4545454545454" y2="378" fill="rgb(0, 0, 0)" stroke="rgb(60, 60, 60)" stroke-width="1px" opacity="0.25"></line><line x1="858.5" y1="0" x2="858.5" y2="378" fill="rgb(0, 0, 0)" stroke="rgb(60, 60, 60)" stroke-width="1px" opacity="0.25"></line></g><g><line x1="0" y1="378" x2="858.5" y2="378" fill="rgb(0, 0, 0)" stroke="rgb(60, 60, 60)" stroke-width="1px" opacity="0.25"></line><line x1="0" y1="343.6363636363636" x2="858.5" y2="343.6363636363636" fill="rgb(0, 0, 0)" stroke="rgb(60, 60, 60)" stroke-width="1px" opacity="0.25"></line><line x1="0" y1="309.27272727272725" x2="858.5" y2="309.27272727272725" fill="rgb(0, 0, 0)" stroke="rgb(60, 60, 60)" stroke-width="1px" opacity="0.25"></line><line x1="0" y1="274.90909090909093" x2="858.5" y2="274.90909090909093" fill="rgb(0, 0, 0)" stroke="rgb(60, 60, 60)" stroke-width="1px" opacity="0.25"></line><line x1="0" y1="240.54545454545453" x2="858.5" y2="240.54545454545453" fill="rgb(0, 0, 0)" stroke="rgb(60, 60, 60)" stroke-width="1px" opacity="0.25"></line><line x1="0" y1="206.1818181818182" x2="858.5" y2="206.1818181818182" fill="rgb(0, 0, 0)" stroke="rgb(60, 60, 60)" stroke-width="1px" opacity="0.25"></line><line x1="0" y1="171.81818181818184" x2="858.5" y2="171.81818181818184" fill="rgb(0, 0, 0)" stroke="rgb(60, 60, 60)" stroke-width="1px" opacity="0.25"></line><line x1="0" y1="137.45454545454547" x2="858.5" y2="137.45454545454547" fill="rgb(0, 0, 0)" stroke="rgb(60, 60, 60)" stroke-width="1px" opacity="0.25"></line><line x1="0" y1="103.09090909090907" x2="858.5" y2="103.09090909090907" fill="rgb(0, 0, 0)" stroke="rgb(60, 60, 60)" stroke-width="1px" opacity="0.25"></line><line x1="0" y1="68.72727272727269" x2="858.5" y2="68.72727272727269" fill="rgb(0, 0, 0)" stroke="rgb(60, 60, 60)" stroke-width="1px" opacity="0.25"></line><line x1="0" y1="34.363636363636374" x2="858.5" y2="34.363636363636374" fill="rgb(0, 0, 0)" stroke="rgb(60, 60, 60)" stroke-width="1px" opacity="0.25"></line><line x1="0" y1="0" x2="858.5" y2="0" fill="rgb(0, 0, 0)" stroke="rgb(60, 60, 60)" stroke-width="1px" opacity="0.25"></line></g></g></g><g><g><line x1="0" y1="206.1818181818182" x2="858.5" y2="206.1818181818182" fill="rgb(0, 0, 0)" stroke="rgb(153, 153, 153)" stroke-width="1.5px"></line></g></g><g><g><line x1="78.04545454545455" y1="0" x2="78.04545454545455" y2="378" fill="rgb(0, 0, 0)" stroke="rgb(153, 153, 153)" stroke-width="1.5px"></line></g></g><g><g><g><g><g><path stroke="rgb(255, 112, 67)" stroke-width="2px" d="M78.8259090909091,302.0907188831676L79.60636363636364,298.08050936612216L80.38681818181819,291.8235086558949L81.16727272727273,289.48056471946023L81.94772727272728,294.38885981889206L82.72818181818181,277.42851762251416L83.50863636363637,292.7055450106534L84.2890909090909,285.3151651278409L85.06954545454545,294.93494464666196L85.85000000000001,294.74452681107954L86.63045454545454,312.7063391335227L87.4109090909091,303.2061611772017L88.19136363636363,308.72160870916196L88.97181818181818,314.0462021484375L89.75227272727273,270.7390770596591L90.53272727272727,294.38457275390624L91.31318181818182,284.52590052379264L92.09363636363636,290.8453195578835L92.87409090909091,285.73669016335225L93.65454545454546,267.79150594815343L94.435,265.8834432262074L95.21545454545455,271.29667236328123L95.9959090909091,251.13120376864347L96.77636363636364,270.1981727849787L97.55681818181817,305.7829305308949L98.33727272727273,294.6678462357954L99.11772727272727,287.6480667613636L99.89818181818181,229.17869394753197L100.67863636363637,191.06495377974076L101.4590909090909,210.78240835293857L102.23954545454546,198.258502532959L103.02,209.19847600624777L103.80045454545454,167.7327095614347L104.58090909090909,159.03450219726562L105.36136363636363,162.012103737571L106.14181818181818,192.07908375133167L106.92227272727273,160.62189497514203L107.70272727272727,157.375353515625L108.48318181818182,158.54061301491475L109.26363636363635,235.69266267533735L110.0440909090909,158.47211645507812L110.82454545454546,157.79520483398437L111.605,157.77071151455965L112.38545454545455,158.35467520419033L113.16590909090908,155.40240174449573L113.94636363636363,159.4982351074219L114.72681818181819,157.11176613547585L115.50727272727273,167.64933831232244L116.28772727272728,156.21987204811788L117.06818181818181,158.87513831676134L117.84863636363636,155.62537946111507L118.6290909090909,156.05794096235795L119.40954545454547,156.7393619717685L120.19000000000001,156.34303078391335L120.97045454545454,155.74606327681107L121.75090909090909,156.64104052734373L122.53136363636364,156.18821823952413L123.31181818181818,157.00344853071732L124.09227272727271,157.4726766024503L124.87272727272726,157.78957543945313L125.65318181818182,157.86909588068184L126.43363636363637,160.63564126864347L127.21409090909091,155.53207916814628L127.99454545454545,160.8342137562145L128.775,159.59189195667616L129.55545454545455,159.05660029740767L130.3359090909091,156.32707384144177L131.11636363636364,157.54538472123576L131.89681818181816,161.60328049538353L132.67727272727274,157.69186643288353L133.45772727272728,157.4484265802557L134.23818181818183,160.17617864435368L135.01863636363638,156.8525958584872L135.7990909090909,158.46884872159092L136.57954545454544,158.6156240678267L137.36,160.3864755415483L138.14045454545456,157.8446612881747L138.92090909090908,158.89305422141337L139.70136363636362,159.20765851384942L140.48181818181817,162.72842112038353L141.26227272727274,157.5435306285511L142.0427272727273,160.59066903409092L142.8231818181818,159.5526120383523L143.60363636363635,167.51265560635653L144.3840909090909,160.18630484286223L145.16454545454545,158.42035287198155L145.94500000000002,157.2585205078125L146.72545454545454,158.10892402787644L147.50590909090909,157.65557739257812L148.28636363636363,157.3301883212003L149.06681818181818,163.44840054598723L149.84727272727275,155.65268747780542L150.62772727272727,155.7499602272727L151.40818181818182,155.74722523082386L152.18863636363636,169.3070439897017L152.9690909090909,154.87279820667612L153.74954545454545,158.38025916637076L154.53,154.5806905184659L155.31045454545455,155.72211527876422L156.0909090909091,153.94865884676847L156.87136363636364,153.26538793945312L157.6518181818182,155.6471503684304L158.43227272727273,168.39225059925425L159.21272727272728,160.88308294122868L159.99318181818182,155.59630124733667L160.77363636363637,157.60143536931818L161.5540909090909,157.85973732688208L162.33454545454546,158.20123435280541L163.115,152.80744802024148L163.89545454545456,155.6062512650923L164.67590909090907,160.21980435458096L165.45636363636362,154.4644405850497L166.2368181818182,157.92087624289772L167.01727272727274,150.37370387961647L167.7977272727273,150.1568673206676L168.5781818181818,157.1968991921165L169.35863636363635,158.28768876509233L170.1390909090909,168.7378123668324L170.91954545454547,154.85818778852985L171.70000000000002,155.82969460227272L172.48045454545453,156.3101940474077L173.26090909090908,148.56915573952415L174.04136363636363,150.75649012340196L174.8218181818182,155.5570506924716L175.60227272727275,149.61530446555398L176.38272727272727,157.63131898082383L177.1631818181818,155.9660081676136L177.94363636363636,156.80222494229403L178.7240909090909,147.58681800426137L179.50454545454545,152.79884033203123L180.285,155.25715329811788L181.06545454545454,146.24596921608665L181.8459090909091,156.30698923561792L182.62636363636364,145.70686030717332L183.40681818181818,149.38637435635653L184.18727272727273,158.67044984019887L184.96772727272727,149.15975976562498L185.74818181818182,157.4953074396307L186.52863636363637,154.41258471679686L187.3090909090909,157.65020387961647L188.08954545454546,147.71498111239347L188.87,145.7883564897017L189.65045454545455,156.05274363014917L190.4309090909091,148.33000295188214L191.21136363636361,146.69145483398438L191.9918181818182,148.44370245916193L192.77227272727274,155.95464450905538L193.55272727272728,151.64409714577417L194.3331818181818,156.85846855024857L195.11363636363635,145.39804900568183L195.89409090909092,144.88230921519886L196.67454545454547,146.38168292791192L197.455,157.18604729669747L198.23545454545453,144.1236581143466L199.01590909090908,144.29616843483663L199.79636363636362,145.37358085493608L200.5768181818182,142.71406946910514L201.35727272727274,144.07803149414065L202.13772727272726,147.53482370827413L202.9181818181818,143.28005433238636L203.69863636363635,142.03730466530538L204.47909090909093,141.51601518110795L205.25954545454547,145.2863000710227L206.04,143.3403291237571L206.82045454545454,142.4990744185014L207.60090909090908,145.8650244806463L208.38136363636363,156.97873708274147L209.16181818181818,143.38868654563208L209.94227272727272,156.00027532404118L210.72272727272727,148.7461335005327L211.50318181818182,154.94547276722304L212.28363636363636,142.43147973632813L213.0640909090909,143.97551526988636L213.84454545454545,161.57518805486507L214.625,159.46498308771305L215.40545454545455,147.21264783824574L216.1859090909091,142.97136048473013L216.96636363636364,140.6167844238281L217.7468181818182,142.4147215909091L218.5272727272727,140.52686512340196L219.30772727272725,139.86144719904118L220.0881818181818,141.82603877397017L220.86863636363637,141.07821859463778L221.64909090909092,140.5089534135298L222.42954545454546,141.0379822665128L223.21,141.75492047674007L223.99045454545455,140.07093869850854L224.7709090909091,155.22169062943894L225.55136363636365,140.46089801580257L226.33181818181816,138.85961212713067L227.1122727272727,137.99785333806818L227.89272727272726,137.64359998668323L228.6731818181818,140.09339754971592L229.45363636363638,158.15576293945313L230.23409090909092,165.74763068181818L231.01454545454547,139.00119014115768L231.79500000000002,140.87840445223722L232.57545454545456,137.89732963423293L233.35590909090908,153.12542491566052L234.13636363636363,139.2726259543679L234.91681818181817,138.23841557173296L235.69727272727272,138.15719204989347L236.47772727272726,136.59237977183946L237.2581818181818,138.02133152077417L238.03863636363639,137.11185291637076L238.81909090909093,137.99519384765625L239.59954545454548,138.95582779208095L240.38000000000002,137.25338478781958L241.1604545454545,136.69740027965202L241.9409090909091,135.62798730468748L242.72136363636363,136.98421415571732L243.50181818181818,137.7582810724432L244.28227272727273,136.51327880859375L245.06272727272727,136.96223770419033L245.84318181818182,134.75884570312502L246.62363636363636,139.31975011097302L247.40409090909094,138.39815698242188L248.18454545454543,135.09102192826705L248.96499999999997,136.7105634987571L249.74545454545452,138.50839579634234L250.5259090909091,136.09633447265625L251.30636363636364,136.9547919699929L252.0868181818182,136.46639375443894L252.86727272727273,134.2662443181818L253.64772727272728,135.31027468039773L254.42818181818183,132.12360111860795L255.20863636363637,135.95674058948865L255.9890909090909,132.14206653941764L256.76954545454544,132.64987819602274L257.55,138.89229365678267L258.33045454545453,133.94927836470168L259.1109090909091,132.99010000887785L259.8913636363636,131.9119325284091L260.6718181818182,134.06362806285512L261.45227272727277,130.55456889204547L262.2327272727273,132.96484743430398L263.0131818181818,134.2597256303267L263.7936363636363,132.36068168501419L264.5740909090909,133.2965957919034L265.3545454545455,131.3877780095881L266.135,133.72902725497158L266.91545454545457,139.24983571555396L267.6959090909091,141.7056611772017L268.47636363636366,138.73750628107243L269.2568181818182,131.66515363103693L270.03727272727275,142.30993179598724L270.81772727272727,132.02888299005684L271.5981818181818,135.1704207208807L272.37863636363636,133.50882648259943L273.1590909090909,135.34216339666193L273.93954545454545,134.91136789772727L274.72,134.22118399325285L275.50045454545455,132.15834228515627L276.2809090909091,132.56421240234377L277.06136363636364,130.7717410333807L277.84181818181816,130.5577737038352L278.62227272727273,130.9388442826705L279.40272727272725,130.0300284534801L280.1831818181818,129.0159068714489L280.96363636363634,134.1256436878551L281.7440909090909,130.8996398703835L282.5245454545455,130.1879619140625L283.305,132.0118689630682L284.0854545454546,130.66552081853695L284.8659090909091,130.73881201171875L285.6463636363636,130.37097176846592L286.4268181818182,129.79605202414774L287.2072727272727,131.11777681107955L287.9877272727273,128.30469034090908L288.7681818181818,131.0440409712358L289.5486363636364,131.07516623757104L290.3290909090909,131.99919233842328L291.10954545454547,129.44601442649147L291.89000000000004,130.56381418678976L292.6704545454545,130.40624147727274L293.4509090909091,130.0105143377131L294.2313636363636,131.5226569602273L295.01181818181817,128.41323446377842L295.79227272727275,129.05584956498578L296.57272727272726,129.78828329190338L297.35318181818184,130.7209338600852L298.13363636363636,130.8876847478693L298.91409090909093,128.78872598544035L299.6945454545455,128.5337169300426L300.47499999999997,129.08005344460227L301.25545454545454,129.8963575994318L302.03590909090906,131.2132080522017L302.81636363636363,131.96536563387787L303.5968181818182,130.1328089488636L304.3772727272727,129.29527081853695L305.1577272727273,128.74866583806818L305.9381818181818,130.2483835227273L306.7186363636364,126.75706827059656L307.4990909090909,128.0168781072443L308.2795454545454,127.32845601029828L309.06,129.18549343039774L309.8404545454545,130.3354671519886L310.6209090909091,129.0205127397017L311.4013636363636,128.98166068892047L312.1818181818182,127.90710910866477L312.96227272727276,128.66492125355114L313.7427272727273,129.76767853338066L314.52318181818185,127.29407559481533L315.3036363636364,128.9012215909091L316.0840909090909,128.49729785156248L316.86454545454546,127.71662415660512L317.645,128.76425363991476L318.42545454545456,127.7914841974432L319.2059090909091,128.56209042080965L319.98636363636365,126.85797789417614L320.7668181818182,124.70636625532669L321.54727272727274,126.9824454012784L322.32772727272726,126.84212162642044L323.1081818181818,125.45844833096592L323.88863636363635,126.65745063920457L324.6690909090909,128.68213662997158L325.44954545454544,125.06641259765627L326.23,125.9137665127841L327.01045454545454,124.45641610440342L327.7909090909091,124.7812430752841L328.5713636363636,123.20059969815338L329.35181818181815,123.91575932173293L330.1322727272727,126.00236865234373L330.91272727272724,124.9528095703125L331.6931818181818,125.85343718927555L332.4736363636364,124.91756503018465L333.2540909090909,123.31984050958809L334.0345454545455,123.42215118963068L334.815,122.15897713955965L335.5954545454546,123.17470951704547L336.3759090909091,123.01346218039771L337.1563636363636,120.62023122336649L337.9368181818182,121.73082435191759L338.7172727272727,121.43898512961647L339.4977272727273,119.90805828302558L340.2781818181818,121.27088352272727L341.05863636363637,123.18224334161934L341.83909090909094,119.88558265269887L342.61954545454546,117.95605104758522L343.40000000000003,122.15452228338066L344.1804545454545,122.62000861150568L344.96090909090907,119.12482577237216L345.74136363636364,118.25680837180397L346.52181818181816,118.58748286576702L347.30227272727274,121.08417387251421L348.08272727272725,122.84233194247162L348.86318181818183,120.45638312322444L349.6436363636364,120.7645148703835L350.4240909090909,115.80668781072444L351.2045454545455,116.94346475497161L351.98499999999996,118.8893895596591L352.76545454545453,119.7407704634233L353.5459090909091,114.53637424538351L354.3263636363636,116.26545410156251L355.1068181818182,115.06154390092331L355.8872727272727,112.76843394886362L356.6677272727273,114.28846275745741L357.4481818181818,114.54186940696025L358.2286363636364,116.47585586825284L359.0090909090909,115.05899347478692L359.7895454545454,114.62763587535511L360.57,112.16027476917611L361.3504545454545,115.65049937855116L362.1309090909091,114.29673486328124L362.91136363636366,115.33552175071026L363.6918181818182,111.36494451349432L364.47227272727275,112.87775830078124L365.25272727272727,111.45498126775573L366.03318181818184,112.71182958984372L366.81363636363636,110.51217933238638L367.5940909090909,113.1805039506392L368.37454545454545,115.81210746626425L369.155,112.33405610795455L369.93545454545455,110.94247984730112L370.7159090909091,108.79075075461651L371.49636363636364,110.19699196555399L372.2768181818182,107.9863849431818L373.05727272727273,108.65857324218752L373.83772727272725,110.85511936257097L374.6181818181818,108.5809698153409L375.39863636363634,107.43089541903413L376.1790909090909,107.76048765980113L376.95954545454543,112.76845911754259L377.74,108.58763112571023L378.5204545454545,106.9164560102983L379.3009090909091,111.12262886186079L380.0813636363637,108.76291419566763L380.8618181818182,107.78149511718749L381.6422727272727,107.14720245916192L382.42272727272723,108.68744171697443L383.2031818181818,112.21382532848014L383.9836363636364,107.2163408203125L384.7640909090909,108.6848829012784L385.54454545454547,105.19183939985794L386.325,106.25284184126417L387.10545454545456,110.65618612393467L387.88590909090914,109.81217125355113L388.6663636363636,112.08391299715908L389.4468181818182,107.81982701526988L390.2272727272727,109.88696417791198L391.00772727272727,110.24576047585231L391.78818181818184,110.38551376065345L392.56863636363636,107.59629558771309L393.34909090909093,110.24117138671875L394.12954545454545,108.4359814453125L394.91,105.61162779651988L395.69045454545454,107.42659996448862L396.47090909090906,105.23060755504264L397.25136363636364,107.35111070667614L398.03181818181815,105.57597216796876L398.8122727272727,107.49094788707384L399.59272727272725,105.23125355113638L400.3731818181818,107.03128391335224L401.1536363636364,107.66169220525569L401.9340909090909,106.93580233487216L402.7145454545455,105.6320899325284L403.495,108.8737570578835L404.2754545454545,105.43288822798297L405.0559090909091,105.86169540127844L405.8363636363636,107.43257333096591L406.6168181818182,101.205439453125L407.3972727272727,107.28380126953124L408.1777272727273,105.51113765092333L408.95818181818186,105.94341810191759L409.7386363636364,109.49476904296876L410.51909090909095,105.6265192649148L411.2995454545454,108.11482071200288L412.08,107.51446382279829L412.86045454545456,105.44037171519886L413.6409090909091,102.61107661576705L414.42136363636365,103.78824090021305L415.20181818181817,105.15359139737217L415.98227272727274,105.05782457386363L416.76272727272726,103.09473473011366L417.54318181818184,104.08889754971591L418.32363636363635,103.52791286399145L419.10409090909087,105.41568963068181L419.88454545454545,105.5686480823864L420.665,109.78405783913354L421.44545454545454,105.32478875177554L422.2259090909091,104.32041583806819L423.00636363636363,104.36682688210226L423.7868181818182,102.88887171519889L424.5672727272727,106.70681769353695L425.3477272727273,103.21757466264205L426.1281818181818,106.13195667613638L426.90863636363633,105.61047003728692L427.6890909090909,101.79874911221589L428.4695454545454,103.10679891690341L429.25,106.26987264737215L430.0304545454545,103.41061004083804L430.8109090909091,108.52862735262784L431.5913636363636,104.16181960227271L432.3718181818182,102.2428085049716L433.1522727272727,102.95396630859375L433.9327272727273,106.73566938920453L434.7131818181818,105.13468132990056L435.4936363636364,102.5677193714489L436.2740909090909,103.97435489169033L437.0545454545454,101.62898637251419L437.835,102.54542831143465L438.6154545454545,101.4474950284091L439.39590909090913,100.32621360085227L440.1763636363636,105.94779745205966L440.9568181818182,103.89925994318179L441.73727272727274,103.73232448508526L442.5177272727273,102.72103018465913L443.29818181818183,100.53205144708807L444.0786363636363,102.99899307528409L444.8590909090909,101.61820578835227L445.63954545454544,99.3290808771307L446.42,100.15237353515624L447.20045454545453,102.83405433238636L447.9809090909091,100.27291472833804L448.7613636363636,100.42850750177558L449.5418181818182,101.61221564275564L450.3222727272727,101.76706174538356L451.1027272727273,101.27291668146307L451.8831818181818,98.4687567027699L452.66363636363633,103.73203924005679L453.4440909090909,102.38131174538353L454.2245454545454,103.26808820134943L455.005,99.884310324929L455.7854545454545,100.51323366477271L456.56590909090914,100.45883575994321L457.3463636363636,99.12338565340912L458.12681818181824,104.21779474431821L458.90727272727275,99.6815598366477L459.6877272727272,100.88171990411934L460.46818181818185,100.01538880504262L461.2486363636363,97.53947873757102L462.02909090909094,98.91444367009944L462.80954545454546,99.52725066583804L463.59000000000003,99.53187331321021L464.37045454545455,100.30409033203125L465.1509090909091,98.23327854225852L465.93136363636364,98.42086070667614L466.71181818181816,97.86746857244316L467.49227272727273,102.73540988991476L468.27272727272725,99.66609787819601L469.0531818181818,99.36333544921877L469.83363636363634,98.28400181995738L470.6140909090909,98.44732976740056L471.39454545454544,94.85009632457388L472.175,96.4096902965199L472.95545454545453,96.83775079900568L473.73590909090905,97.18137038352273L474.5163636363636,100.6569636008523L475.29681818181814,98.45432666015626L476.07727272727277,98.55218248401991L476.85772727272723,98.24251544744317L477.63818181818186,97.74911705433237L478.4186363636363,97.0908722034801L479.19909090909096,97.16881121271302L479.9795454545455,98.64891410688921L480.76000000000005,98.65607040127838L481.54045454545457,97.22330140269884L482.320909090909,96.42466566051132L483.10136363636366,100.83441956676137L483.8818181818182,94.69150847833811L484.66227272727275,98.10725057705969L485.44272727272727,95.8248373135653L486.22318181818184,94.80011132812501L487.00363636363636,94.37123703835226L487.78409090909093,96.66080659623583L488.56454545454545,93.89146329012783L489.34499999999997,96.60795237038354L490.12545454545455,97.40534645774147L490.90590909090906,95.6158785511364L491.68636363636364,96.25468479225856L492.46681818181816,95.49188085937499L493.24727272727273,94.72144242720174L494.02772727272725,96.20476691228691L494.8081818181819,98.3704058948864L495.58863636363634,95.59934272904832L496.36909090909086,96.16752565696021L497.1495454545455,93.31924498401986L497.92999999999995,93.86711678799713L498.7104545454546,92.24835964133524L499.49090909090904,97.17671417791195L500.2713636363637,94.0849600941051L501.0518181818182,99.81723579545456L501.83227272727277,92.03983713600854L502.6127272727273,94.63807537286931L503.39318181818174,96.77768155184657L504.1736363636364,94.11145432350855L504.9540909090909,93.61585786576705L505.73454545454547,92.0212542613636L506.515,94.55225017755686L507.29545454545456,93.11308833451704L508.0759090909091,96.17647731711651L508.85636363636365,91.32279825106536L509.63681818181817,94.48102281605111L510.41727272727275,94.43343723366479L511.19772727272726,91.80262233664774L511.9781818181818,93.47504749644884L512.7586363636364,92.06305104758519L513.5390909090909,94.59040589488637L514.3195454545455,96.83856458629259L515.1,92.85053706498582L515.8804545454545,93.6265713334517L516.6609090909091,94.37408948863634L517.4413636363637,91.40029261363634L518.2218181818182,95.3963489435369L519.0022727272727,95.36005570845168L519.7827272727272,92.31243909801134L520.5631818181818,93.55546142578123L521.3436363636364,95.17168492542618L522.1240909090909,92.00772190163354L522.9045454545455,91.91046173650568L523.685,91.97615198863639L524.4654545454546,93.63110169566761L525.2459090909091,92.02690882457387L526.0263636363636,96.24378675426135L526.8068181818182,89.96540105646307L527.5872727272726,95.96819810901991L528.3677272727273,91.71068115234374L529.1481818181818,92.9912215909091L529.9286363636364,99.12122953657672L530.709090909091,91.45761008522726L531.4895454545455,90.75163702947441L532.27,91.63377405894886L533.0504545454545,91.79828493430398L533.8309090909091,91.51495272549715L534.6113636363636,89.97598868075283L535.3918181818182,90.34652197265626L536.1722727272727,91.70753506747161L536.9527272727273,92.5919708362926L537.7331818181818,92.8342780983665L538.5136363636364,91.29386265980116L539.2940909090909,91.00630211292616L540.0745454545455,95.94207302024148L540.855,89.33010165127837L541.6354545454545,93.22435067471594L542.415909090909,95.98844211647724L543.1963636363636,92.22839248934656L543.9768181818182,94.21490598366478L544.7572727272727,94.14564177911927L545.5377272727274,87.63453808593749L546.3181818181818,88.42964182350852L547.0986363636364,91.2228534268466L547.8790909090909,89.59222505326704L548.6595454545454,93.48208633700284L549.44,89.5349746981534L550.2204545454545,88.78133216441762L551.0009090909091,91.127136940696L551.7813636363636,89.98348894708806L552.5618181818182,89.63017103160507L553.3422727272728,87.98095139382104L554.1227272727273,90.63566814630684L554.9031818181818,89.82786261541196L555.6836363636363,91.28341765802554L556.4640909090909,90.32139524147726L557.2445454545455,88.78669309303979L558.025,90.00763409978691L558.8054545454545,90.39630561967329L559.5859090909091,88.34815403053977L560.3663636363636,89.43549129971592L561.1468181818183,89.73139106889204L561.9272727272727,87.60628204900564L562.7077272727272,88.86354984907672L563.4881818181818,87.37484765624998L564.2686363636363,88.23011292613637L565.049090909091,93.56672860440341L565.8295454545454,90.48380872691757L566.61,87.23574036754263L567.3904545454545,89.13629443359372L568.1709090909092,88.27649880149147L568.9513636363637,88.44576655717333L569.7318181818182,89.47212850674714L570.5122727272727,87.53289857066761L571.2927272727272,88.00203435724433L572.0731818181819,88.29602969637784L572.8536363636364,88.20132834694601L573.6340909090909,88.18929771839487L574.4145454545454,89.42087668678977L575.195,89.02523344282673L575.9754545454546,88.26760586825282L576.7559090909091,87.73882031249997L577.5363636363636,87.20948104580964L578.3168181818181,87.25374436257101L579.0972727272728,88.16753520063924L579.8777272727273,87.75275537109377L580.6581818181818,85.61293945312497L581.4386363636363,86.10655597478694L582.2190909090909,88.29916739169033L582.9995454545455,87.69376837713071L583.7800000000001,88.40712424538356L584.5604545454545,90.62723663884941L585.340909090909,87.06052441406251L586.1213636363636,86.6998991921165L586.9018181818182,88.12425346235796L587.6822727272728,88.48451793323864L588.4627272727272,86.85119651100854L589.2431818181818,86.86215327592333L590.0236363636363,87.12233030007104L590.804090909091,86.33664803799712L591.5845454545455,88.43117711292615L592.365,86.79059033203123L593.1454545454545,87.46933926669033L593.925909090909,88.89407106711644L594.7063636363637,85.97326265092329L595.4868181818182,83.7033666104403L596.2672727272727,84.50432626065339L597.0477272727272,86.96948091264204L597.8281818181819,84.47839413174717L598.6086363636364,85.70522460937497L599.389090909091,86.43766672585224L600.1695454545454,88.22901389382099L600.9499999999999,82.3740408824574L601.7304545454546,85.45284148615059L602.5109090909091,85.40954296875003L603.2913636363637,85.4781947354403L604.0718181818181,84.74207799183239L604.8522727272727,88.57777627840909L605.6327272727273,86.3961132368608L606.4131818181819,84.94096928267044L607.1936363636364,86.59158158735795L607.9740909090908,84.18931507457387L608.7545454545455,84.9915583274148L609.535,83.87119975142042L610.3154545454546,84.82364129083805L611.0959090909091,83.75148912464488L611.8763636363636,85.57990136718752L612.6568181818182,83.99565047940342L613.4372727272728,83.61306139026988L614.2177272727273,84.00282355291193L614.9981818181818,87.10873921342329L615.7786363636363,85.35074054509943L616.5590909090909,84.94519762073861L617.3395454545455,83.07174183238635L618.12,84.98479634232956L618.9004545454545,82.86364719460227L619.680909090909,85.31367547052554L620.4613636363637,84.32986536754265L621.2418181818182,84.44640474076704L622.0222727272727,85.64841890092333L622.8027272727272,84.20330886008526L623.5831818181817,84.38991783558237L624.3636363636364,83.59266637073864L625.1440909090909,81.59840092329546L625.9245454545455,83.42859175248583L626.705,81.36777192826702L627.4854545454546,82.91332177734375L628.2659090909091,80.87276273970167L629.0463636363637,82.42306107954545L629.8268181818182,82.62665891335229L630.6072727272727,80.18100998757103L631.3877272727273,82.15668417080968L632.1681818181818,84.20937451171875L632.9486363636364,81.65228706498579L633.7290909090909,83.45791326349433L634.5095454545454,81.8050189985795L635.29,81.41242955433239L636.0704545454546,81.98993328302561L636.8509090909091,82.19056960227272L637.6313636363636,82.15502303799718L638.4118181818181,83.41975754616476L639.1922727272727,81.97002485795451L639.9727272727273,82.04220862926138L640.7531818181818,80.82138507634943L641.5336363636364,82.49301322798294L642.3140909090909,81.23071169211647L643.0945454545455,82.32450892223011L643.875,79.53492160866477L644.6554545454545,80.26277463600854L645.4359090909091,81.71572052556814L646.2163636363636,82.00261829723007L646.9968181818182,81.13873694957385L647.7772727272727,81.82361026278409L648.5577272727273,83.20360893110796L649.3381818181819,81.30332333096595L650.1186363636364,80.10983296342329L650.8990909090909,80.58634317294036L651.6795454545454,80.48773228870738L652.46,80.39400412819606L653.2404545454546,81.962902121804L654.0209090909091,81.63414883700284L654.8013636363636,81.50987428977271L655.5818181818182,80.79479017223014L656.3622727272727,81.10510320490056L657.1427272727273,81.85179079367896L657.9231818181818,81.87195090553979L658.7036363636363,78.44944682173292L659.4840909090909,81.02769273792615L660.2645454545454,80.79408544921876L661.045,81.45939430930395L661.8254545454545,82.04953271484374L662.6059090909091,80.80442977627837L663.3863636363636,81.06467391690342L664.1668181818183,79.4721844815341L664.9472727272728,80.98547647372158L665.7277272727273,81.54747629616475L666.5081818181818,80.50842933238636L667.2886363636363,82.97889457563923L668.069090909091,78.7844922762784L668.8495454545455,80.28401700106537L669.63,80.07429478870739L670.4104545454545,78.93017697975853L671.1909090909091,79.53456924715908L671.9713636363637,79.72497869318181L672.7518181818182,79.91451562500004L673.5322727272727,80.69449298650568L674.3127272727272,79.51601154119317L675.0931818181818,79.51232852450283L675.8736363636364,77.36382941228692L676.6540909090909,79.6689783824574L677.4345454545454,78.82894855291192L678.215,77.82920667613632L678.9954545454545,80.12299618252842L679.7759090909092,80.11798761541195L680.5563636363636,78.80659876598014L681.3368181818181,77.72958065518463L682.1172727272727,82.52094207208808L682.8977272727273,81.08691463955967L683.6781818181819,77.0671494140625L684.4586363636363,78.01372665127843L685.2390909090909,77.61858678089487L686.0195454545454,78.26193177379264L686.8000000000001,79.82600577059657L687.5804545454546,77.96107377485794L688.360909090909,80.75389106889202L689.1413636363636,80.07001611328127L689.9218181818181,80.47201025390626L690.7022727272728,76.95468736683239L691.4827272727273,80.10849063387786L692.2631818181818,77.65182621626417L693.0436363636363,79.44304754083805L693.824090909091,76.61143692294036L694.6045454545455,79.34434437144887L695.385,81.44954496626417L696.1654545454545,77.35508749112216L696.945909090909,78.77673193359374L697.7263636363637,78.80920791903407L698.5068181818182,78.19817950994315L699.2872727272728,79.49092675781253L700.0677272727272,78.66046102627837L700.8481818181818,81.72039351029827L701.6286363636364,79.10261598899149L702.409090909091,78.73548885830962L703.1895454545455,76.8163938654119L703.9699999999999,77.23493221768467L704.7504545454545,78.12362149325281L705.5309090909091,77.76980020419035L706.3113636363637,78.32255473188917L707.0918181818182,79.09061052911932L707.8722727272727,78.92499223188923L708.6527272727272,79.96657284268468L709.4331818181819,79.29883101029833L710.2136363636364,77.33287193714489L710.9940909090909,78.92320525568181L711.7745454545454,79.2797447620739L712.555,77.99781165660511L713.3354545454546,78.3219422940341L714.1159090909091,79.023754128196L714.8963636363636,76.74539302201708L715.6768181818181,75.92705020419038L716.4572727272728,75.23797372159089L717.2377272727273,76.67142227450285L718.0181818181818,76.65153062855114L718.7986363636363,77.76795450106533L719.5790909090908,77.45030060369317L720.3595454545455,80.06407630504259L721.14,78.84635688920451L721.9204545454546,78.81175834517046L722.700909090909,75.25269739879263L723.4813636363637,79.87308797940341L724.2618181818182,77.41618026455967L725.0422727272728,77.91405029296874L725.8227272727273,76.43159832208806L726.6031818181817,76.24050093217329L727.3836363636364,79.10019979580966L728.1640909090909,77.97343998579544L728.9445454545455,78.37222092507102L729.725,76.50202867542612L730.5054545454545,79.06263973721593L731.2859090909091,75.31303511186081L732.0663636363637,76.22147341086651L732.8468181818182,77.01387571022724L733.6272727272727,78.11994686612212L734.4077272727272,78.00834894353693L735.1881818181818,76.6368153409091L735.9686363636364,75.15000079900568L736.7490909090909,79.85490780362215L737.5295454545455,75.82484019886363L738.31,76.99916881214489L739.0904545454546,77.93635813210227L739.8709090909091,76.74525039950288L740.6513636363636,76.8266123490767L741.4318181818182,74.77367032137784L742.2122727272726,78.54143834339487L742.9927272727273,74.83400803444601L743.7731818181818,76.54644300426139L744.5536363636364,77.1855344904119L745.334090909091,75.26686736505684L746.1145454545455,75.21243590198861L746.895,77.62816765802557L747.6754545454545,77.29871803977272L748.4559090909091,77.24378320312502L749.2363636363636,79.07211155007104L750.0168181818182,76.51954607599436L750.7972727272727,75.59529345703123L751.5777272727273,75.36416947798295L752.3581818181818,76.7048546697443L753.1386363636364,77.68178533380683L753.9190909090909,76.00209481534091L754.6995454545455,74.37981405362217L755.48,75.01920756392042L756.2604545454545,76.47820232599429L757.040909090909,75.67091694779833L757.8213636363636,73.90412602095171L758.6018181818182,76.46690158913356L759.3822727272727,79.20161279296872L760.1627272727274,75.47300723544038L760.9431818181818,74.28659765624997L761.7236363636364,74.73248597301136L762.5040909090909,76.24119726562503L763.2845454545454,76.5074315518466L764.065,73.58145516690342L764.8454545454545,76.1667818714489L765.6259090909091,77.37362841796875L766.4063636363636,74.40802814275571L767.1868181818182,75.6618058860085L767.9672727272728,77.57048943536932L768.7477272727273,75.01049081143464L769.5281818181818,76.52097230113634L770.3086363636363,76.38482652698866L771.0890909090909,77.7573836558949L771.8695454545455,74.79969473544031L772.65,74.34854616477276L773.4304545454545,75.42349205433243L774.2109090909091,76.59204865056819L774.9913636363636,74.14380735085228L775.7718181818183,75.43264506392046L776.5522727272727,74.588160378196L777.3327272727272,74.54221914950284L778.1131818181818,74.02901300603696L778.8936363636363,76.81372598544033L779.674090909091,74.91576429332389L780.4545454545454,74.84254860617898L781.235,74.9364697265625L782.0154545454545,77.61453462357952L782.7959090909092,75.02491246448864L783.5763636363637,74.47204887251422L784.3568181818182,76.64783083274148L785.1372727272727,75.74110400390623L785.9177272727272,73.09110218394886L786.6981818181819,75.37102374822445L787.4786363636364,74.7367059215199L788.2590909090909,76.25988081498576L789.0395454545454,74.87252450284092L789.82,70.361181418679L790.6004545454546,73.55418909801136L791.3809090909091,73.35730291193181L792.1613636363636,74.87465545099434L792.9418181818181,74.45204816228693L793.7222727272728,76.2253829456676L794.5027272727273,73.19446155894889L795.2831818181818,73.98596617542614L796.0636363636363,75.49392240767048L796.8440909090909,74.23867649147729L797.6245454545455,76.80054598721591L798.4050000000001,74.61198672762788L799.1854545454545,73.75628520063918L799.965909090909,76.1087596768466" style="fill: none;" fill="none"></path></g></g></g></g></g></g><g transform="translate(94, 378)" clip-path="url(#clip_1)"><clipPath id="clip_1"><rect width="858" height="22"></rect></clipPath><g><g><line x1="0" y1="0" x2="0" y2="5" style="visibility: inherit;" fill="rgb(0, 0, 0)" stroke="rgb(204, 204, 204)" stroke-width="1px"></line><line x1="78.04545454545455" y1="0" x2="78.04545454545455" y2="5" style="visibility: inherit;" fill="rgb(0, 0, 0)" stroke="rgb(204, 204, 204)" stroke-width="1px"></line><line x1="156.0909090909091" y1="0" x2="156.0909090909091" y2="5" style="visibility: inherit;" fill="rgb(0, 0, 0)" stroke="rgb(204, 204, 204)" stroke-width="1px"></line><line x1="234.13636363636363" y1="0" x2="234.13636363636363" y2="5" style="visibility: inherit;" fill="rgb(0, 0, 0)" stroke="rgb(204, 204, 204)" stroke-width="1px"></line><line x1="312.1818181818182" y1="0" x2="312.1818181818182" y2="5" style="visibility: inherit;" fill="rgb(0, 0, 0)" stroke="rgb(204, 204, 204)" stroke-width="1px"></line><line x1="390.2272727272727" y1="0" x2="390.2272727272727" y2="5" style="visibility: inherit;" fill="rgb(0, 0, 0)" stroke="rgb(204, 204, 204)" stroke-width="1px"></line><line x1="468.27272727272725" y1="0" x2="468.27272727272725" y2="5" style="visibility: inherit;" fill="rgb(0, 0, 0)" stroke="rgb(204, 204, 204)" stroke-width="1px"></line><line x1="546.3181818181818" y1="0" x2="546.3181818181818" y2="5" style="visibility: inherit;" fill="rgb(0, 0, 0)" stroke="rgb(204, 204, 204)" stroke-width="1px"></line><line x1="624.3636363636364" y1="0" x2="624.3636363636364" y2="5" style="visibility: inherit;" fill="rgb(0, 0, 0)" stroke="rgb(204, 204, 204)" stroke-width="1px"></line><line x1="702.409090909091" y1="0" x2="702.409090909091" y2="5" style="visibility: inherit;" fill="rgb(0, 0, 0)" stroke="rgb(204, 204, 204)" stroke-width="1px"></line><line x1="780.4545454545454" y1="0" x2="780.4545454545454" y2="5" style="visibility: inherit;" fill="rgb(0, 0, 0)" stroke="rgb(204, 204, 204)" stroke-width="1px"></line><line x1="858.5" y1="0" x2="858.5" y2="5" style="visibility: inherit;" fill="rgb(0, 0, 0)" stroke="rgb(204, 204, 204)" stroke-width="1px"></line></g><g transform="translate(0, 8)"><text x="0" y="0" dx="0em" dy="0.95em" style="text-anchor: middle; visibility: hidden; font-family: &quot;Helvetica Neue&quot;, sans-serif; font-size: 12px; font-weight: 200;" fill="rgb(50, 49, 63)" stroke="none" stroke-width="1px">-100</text><text x="78.04545454545455" y="0" dx="0em" dy="0.95em" style="text-anchor: middle; visibility: inherit; font-family: &quot;Helvetica Neue&quot;, sans-serif; font-size: 12px; font-weight: 200;" fill="rgb(50, 49, 63)" stroke="none" stroke-width="1px">0</text><text x="156.0909090909091" y="0" dx="0em" dy="0.95em" style="text-anchor: middle; visibility: inherit; font-family: &quot;Helvetica Neue&quot;, sans-serif; font-size: 12px; font-weight: 200;" fill="rgb(50, 49, 63)" stroke="none" stroke-width="1px">100</text><text x="234.13636363636363" y="0" dx="0em" dy="0.95em" style="text-anchor: middle; visibility: inherit; font-family: &quot;Helvetica Neue&quot;, sans-serif; font-size: 12px; font-weight: 200;" fill="rgb(50, 49, 63)" stroke="none" stroke-width="1px">200</text><text x="312.1818181818182" y="0" dx="0em" dy="0.95em" style="text-anchor: middle; visibility: inherit; font-family: &quot;Helvetica Neue&quot;, sans-serif; font-size: 12px; font-weight: 200;" fill="rgb(50, 49, 63)" stroke="none" stroke-width="1px">300</text><text x="390.2272727272727" y="0" dx="0em" dy="0.95em" style="text-anchor: middle; visibility: inherit; font-family: &quot;Helvetica Neue&quot;, sans-serif; font-size: 12px; font-weight: 200;" fill="rgb(50, 49, 63)" stroke="none" stroke-width="1px">400</text><text x="468.27272727272725" y="0" dx="0em" dy="0.95em" style="text-anchor: middle; visibility: inherit; font-family: &quot;Helvetica Neue&quot;, sans-serif; font-size: 12px; font-weight: 200;" fill="rgb(50, 49, 63)" stroke="none" stroke-width="1px">500</text><text x="546.3181818181818" y="0" dx="0em" dy="0.95em" style="text-anchor: middle; visibility: inherit; font-family: &quot;Helvetica Neue&quot;, sans-serif; font-size: 12px; font-weight: 200;" fill="rgb(50, 49, 63)" stroke="none" stroke-width="1px">600</text><text x="624.3636363636364" y="0" dx="0em" dy="0.95em" style="text-anchor: middle; visibility: inherit; font-family: &quot;Helvetica Neue&quot;, sans-serif; font-size: 12px; font-weight: 200;" fill="rgb(50, 49, 63)" stroke="none" stroke-width="1px">700</text><text x="702.409090909091" y="0" dx="0em" dy="0.95em" style="text-anchor: middle; visibility: inherit; font-family: &quot;Helvetica Neue&quot;, sans-serif; font-size: 12px; font-weight: 200;" fill="rgb(50, 49, 63)" stroke="none" stroke-width="1px">800</text><text x="780.4545454545454" y="0" dx="0em" dy="0.95em" style="text-anchor: middle; visibility: inherit; font-family: &quot;Helvetica Neue&quot;, sans-serif; font-size: 12px; font-weight: 200;" fill="rgb(50, 49, 63)" stroke="none" stroke-width="1px">900</text><text x="858.5" y="0" dx="0em" dy="0.95em" style="text-anchor: middle; visibility: hidden; font-family: &quot;Helvetica Neue&quot;, sans-serif; font-size: 12px; font-weight: 200;" fill="rgb(50, 49, 63)" stroke="none" stroke-width="1px">1k</text></g><line x1="0" y1="0" x2="858.5" y2="0" fill="rgb(0, 0, 0)" stroke="rgb(204, 204, 204)" stroke-width="1px"></line></g></g></g></g></svg>