<svg viewBox="0 0 952.5 400" xmlns="http://www.w3.org/2000/svg"><g><g><g><g><g><line x1="58" y1="377.5858279181498" x2="53" y2="377.5858279181498" style="visibility: inherit;" fill="rgb(0, 0, 0)" stroke="rgb(204, 204, 204)" stroke-width="1px"></line><line x1="58" y1="368.69833227576777" x2="53" y2="368.69833227576777" style="visibility: inherit;" fill="rgb(0, 0, 0)" stroke="rgb(204, 204, 204)" stroke-width="1px"></line><line x1="58" y1="360.85900554092177" x2="53" y2="360.85900554092177" style="visibility: inherit;" fill="rgb(0, 0, 0)" stroke="rgb(204, 204, 204)" stroke-width="1px"></line><line x1="58" y1="353.84648881819805" x2="53" y2="353.84648881819805" style="visibility: inherit;" fill="rgb(0, 0, 0)" stroke="rgb(204, 204, 204)" stroke-width="1px"></line><line x1="58" y1="307.71244928130653" x2="53" y2="307.71244928130653" style="visibility: inherit;" fill="rgb(0, 0, 0)" stroke="rgb(204, 204, 204)" stroke-width="1px"></line><line x1="58" y1="280.7257661454378" x2="53" y2="280.7257661454378" style="visibility: inherit;" fill="rgb(0, 0, 0)" stroke="rgb(204, 204, 204)" stroke-width="1px"></line><line x1="58" y1="261.578409744415" x2="53" y2="261.578409744415" style="visibility: inherit;" fill="rgb(0, 0, 0)" stroke="rgb(204, 204, 204)" stroke-width="1px"></line><line x1="58" y1="246.72656628684533" x2="53" y2="246.72656628684533" style="visibility: inherit;" fill="rgb(0, 0, 0)" stroke="rgb(204, 204, 204)" stroke-width="1px"></line><line x1="58" y1="234.5917266085463" x2="53" y2="234.5917266085463" style="visibility: inherit;" fill="rgb(0, 0, 0)" stroke="rgb(204, 204, 204)" stroke-width="1px"></line><line x1="58" y1="224.3318658499056" x2="53" y2="224.3318658499056" style="visibility: inherit;" fill="rgb(0, 0, 0)" stroke="rgb(204, 204, 204)" stroke-width="1px"></line><line x1="58" y1="215.44437020752355" x2="53" y2="215.44437020752355" style="visibility: inherit;" fill="rgb(0, 0, 0)" stroke="rgb(204, 204, 204)" stroke-width="1px"></line><line x1="58" y1="207.60504347267755" x2="53" y2="207.60504347267755" style="visibility: inherit;" fill="rgb(0, 0, 0)" stroke="rgb(204, 204, 204)" stroke-width="1px"></line><line x1="58" y1="200.5925267499538" x2="53" y2="200.5925267499538" style="visibility: inherit;" fill="rgb(0, 0, 0)" stroke="rgb(204, 204, 204)" stroke-width="1px"></line><line x1="58" y1="154.4584872130623" x2="53" y2="154.4584872130623" style="visibility: inherit;" fill="rgb(0, 0, 0)" stroke="rgb(204, 204, 204)" stroke-width="1px"></line><line x1="58" y1="127.47180407719358" x2="53" y2="127.47180407719358" style="visibility: inherit;" fill="rgb(0, 0, 0)" stroke="rgb(204, 204, 204)" stroke-width="1px"></line><line x1="58" y1="108.32444767617085" x2="53" y2="108.32444767617085" style="visibility: inherit;" fill="rgb(0, 0, 0)" stroke="rgb(204, 204, 204)" stroke-width="1px"></line><line x1="58" y1="93.47260421860108" x2="53" y2="93.47260421860108" style="visibility: inherit;" fill="rgb(0, 0, 0)" stroke="rgb(204, 204, 204)" stroke-width="1px"></line><line x1="58" y1="81.33776454030209" x2="53" y2="81.33776454030209" style="visibility: inherit;" fill="rgb(0, 0, 0)" stroke="rgb(204, 204, 204)" stroke-width="1px"></line><line x1="58" y1="71.07790378166135" x2="53" y2="71.07790378166135" style="visibility: inherit;" fill="rgb(0, 0, 0)" stroke="rgb(204, 204, 204)" stroke-width="1px"></line><line x1="58" y1="62.19040813927933" x2="53" y2="62.19040813927933" style="visibility: inherit;" fill="rgb(0, 0, 0)" stroke="rgb(204, 204, 204)" stroke-width="1px"></line><line x1="58" y1="54.35108140443333" x2="53" y2="54.35108140443333" style="visibility: inherit;" fill="rgb(0, 0, 0)" stroke="rgb(204, 204, 204)" stroke-width="1px"></line><line x1="58" y1="47.33856468170961" x2="53" y2="47.33856468170961" style="visibility: inherit;" fill="rgb(0, 0, 0)" stroke="rgb(204, 204, 204)" stroke-width="1px"></line><line x1="58" y1="1.204525144818092" x2="53" y2="1.204525144818092" style="visibility: inherit;" fill="rgb(0, 0, 0)" stroke="rgb(204, 204, 204)" stroke-width="1px"></line></g><g transform="translate(48, 0)"><text x="0" y="377.5858279181498" dx="0em" dy="0.3em" style="text-anchor: end; visibility: hidden; font-family: &quot;Helvetica Neue&quot;, sans-serif; font-size: 12px; font-weight: 200;" fill="rgb(50, 49, 63)" stroke="none" stroke-width="1px">7</text><text x="0" y="368.69833227576777" dx="0em" dy="0.3em" style="text-anchor: end; visibility: inherit; font-family: &quot;Helvetica Neue&quot;, sans-serif; font-size: 12px; font-weight: 200;" fill="rgb(50, 49, 63)" stroke="none" stroke-width="1px">8</text><text x="0" y="360.85900554092177" dx="0em" dy="0.3em" style="text-anchor: end; visibility: hidden; font-family: &quot;Helvetica Neue&quot;, sans-serif; font-size: 12px; font-weight: 200;" fill="rgb(50, 49, 63)" stroke="none" stroke-width="1px">9</text><text x="0" y="353.84648881819805" dx="0em" dy="0.3em" style="text-anchor: end; visibility: hidden; font-family: &quot;Helvetica Neue&quot;, sans-serif; font-size: 12px; font-weight: 200;" fill="rgb(50, 49, 63)" stroke="none" stroke-width="1px">10</text><text x="0" y="307.71244928130653" dx="0em" dy="0.3em" style="text-anchor: end; visibility: inherit; font-family: &quot;Helvetica Neue&quot;, sans-serif; font-size: 12px; font-weight: 200;" fill="rgb(50, 49, 63)" stroke="none" stroke-width="1px">20</text><text x="0" y="280.7257661454378" dx="0em" dy="0.3em" style="text-anchor: end; visibility: hidden; font-family: &quot;Helvetica Neue&quot;, sans-serif; font-size: 12px; font-weight: 200;" fill="rgb(50, 49, 63)" stroke="none" stroke-width="1px">30</text><text x="0" y="261.578409744415" dx="0em" dy="0.3em" style="text-anchor: end; visibility: hidden; font-family: &quot;Helvetica Neue&quot;, sans-serif; font-size: 12px; font-weight: 200;" fill="rgb(50, 49, 63)" stroke="none" stroke-width="1px">40</text><text x="0" y="246.72656628684533" dx="0em" dy="0.3em" style="text-anchor: end; visibility: inherit; font-family: &quot;Helvetica Neue&quot;, sans-serif; font-size: 12px; font-weight: 200;" fill="rgb(50, 49, 63)" stroke="none" stroke-width="1px">50</text><text x="0" y="234.5917266085463" dx="0em" dy="0.3em" style="text-anchor: end; visibility: hidden; font-family: &quot;Helvetica Neue&quot;, sans-serif; font-size: 12px; font-weight: 200;" fill="rgb(50, 49, 63)" stroke="none" stroke-width="1px">60</text><text x="0" y="224.3318658499056" dx="0em" dy="0.3em" style="text-anchor: end; visibility: hidden; font-family: &quot;Helvetica Neue&quot;, sans-serif; font-size: 12px; font-weight: 200;" fill="rgb(50, 49, 63)" stroke="none" stroke-width="1px">70</text><text x="0" y="215.44437020752355" dx="0em" dy="0.3em" style="text-anchor: end; visibility: inherit; font-family: &quot;Helvetica Neue&quot;, sans-serif; font-size: 12px; font-weight: 200;" fill="rgb(50, 49, 63)" stroke="none" stroke-width="1px">80</text><text x="0" y="207.60504347267755" dx="0em" dy="0.3em" style="text-anchor: end; visibility: hidden; font-family: &quot;Helvetica Neue&quot;, sans-serif; font-size: 12px; font-weight: 200;" fill="rgb(50, 49, 63)" stroke="none" stroke-width="1px">90</text><text x="0" y="200.5925267499538" dx="0em" dy="0.3em" style="text-anchor: end; visibility: hidden; font-family: &quot;Helvetica Neue&quot;, sans-serif; font-size: 12px; font-weight: 200;" fill="rgb(50, 49, 63)" stroke="none" stroke-width="1px">100</text><text x="0" y="154.4584872130623" dx="0em" dy="0.3em" style="text-anchor: end; visibility: inherit; font-family: &quot;Helvetica Neue&quot;, sans-serif; font-size: 12px; font-weight: 200;" fill="rgb(50, 49, 63)" stroke="none" stroke-width="1px">200</text><text x="0" y="127.47180407719358" dx="0em" dy="0.3em" style="text-anchor: end; visibility: hidden; font-family: &quot;Helvetica Neue&quot;, sans-serif; font-size: 12px; font-weight: 200;" fill="rgb(50, 49, 63)" stroke="none" stroke-width="1px">300</text><text x="0" y="108.32444767617085" dx="0em" dy="0.3em" style="text-anchor: end; visibility: hidden; font-family: &quot;Helvetica Neue&quot;, sans-serif; font-size: 12px; font-weight: 200;" fill="rgb(50, 49, 63)" stroke="none" stroke-width="1px">400</text><text x="0" y="93.47260421860108" dx="0em" dy="0.3em" style="text-anchor: end; visibility: inherit; font-family: &quot;Helvetica Neue&quot;, sans-serif; font-size: 12px; font-weight: 200;" fill="rgb(50, 49, 63)" stroke="none" stroke-width="1px">500</text><text x="0" y="81.33776454030209" dx="0em" dy="0.3em" style="text-anchor: end; visibility: hidden; font-family: &quot;Helvetica Neue&quot;, sans-serif; font-size: 12px; font-weight: 200;" fill="rgb(50, 49, 63)" stroke="none" stroke-width="1px">600</text><text x="0" y="71.07790378166135" dx="0em" dy="0.3em" style="text-anchor: end; visibility: hidden; font-family: &quot;Helvetica Neue&quot;, sans-serif; font-size: 12px; font-weight: 200;" fill="rgb(50, 49, 63)" stroke="none" stroke-width="1px">700</text><text x="0" y="62.19040813927933" dx="0em" dy="0.3em" style="text-anchor: end; visibility: inherit; font-family: &quot;Helvetica Neue&quot;, sans-serif; font-size: 12px; font-weight: 200;" fill="rgb(50, 49, 63)" stroke="none" stroke-width="1px">800</text><text x="0" y="54.35108140443333" dx="0em" dy="0.3em" style="text-anchor: end; visibility: hidden; font-family: &quot;Helvetica Neue&quot;, sans-serif; font-size: 12px; font-weight: 200;" fill="rgb(50, 49, 63)" stroke="none" stroke-width="1px">900</text><text x="0" y="47.33856468170961" dx="0em" dy="0.3em" style="text-anchor: end; visibility: hidden; font-family: &quot;Helvetica Neue&quot;, sans-serif; font-size: 12px; font-weight: 200;" fill="rgb(50, 49, 63)" stroke="none" stroke-width="1px">1e+3</text><text x="0" y="1.204525144818092" dx="0em" dy="0.3em" style="text-anchor: end; visibility: hidden; font-family: &quot;Helvetica Neue&quot;, sans-serif; font-size: 12px; font-weight: 200;" fill="rgb(50, 49, 63)" stroke="none" stroke-width="1px">2e+3</text></g><line x1="58" y1="0" x2="58" y2="378" fill="rgb(0, 0, 0)" stroke="rgb(204, 204, 204)" stroke-width="1px"></line></g></g><g transform="translate(58, 0)" clip-path="url(#clip_0)"><clipPath id="clip_0"><rect width="894" height="378"></rect></clipPath><g><g><g><line x1="0" y1="0" x2="0" y2="378" fill="rgb(0, 0, 0)" stroke="rgb(60, 60, 60)" stroke-width="1px" opacity="0.25"></line><line x1="68.8076923076923" y1="0" x2="68.8076923076923" y2="378" fill="rgb(0, 0, 0)" stroke="rgb(60, 60, 60)" stroke-width="1px" opacity="0.25"></line><line x1="137.6153846153846" y1="0" x2="137.6153846153846" y2="378" fill="rgb(0, 0, 0)" stroke="rgb(60, 60, 60)" stroke-width="1px" opacity="0.25"></line><line x1="206.42307692307693" y1="0" x2="206.42307692307693" y2="378" fill="rgb(0, 0, 0)" stroke="rgb(60, 60, 60)" stroke-width="1px" opacity="0.25"></line><line x1="275.2307692307692" y1="0" x2="275.2307692307692" y2="378" fill="rgb(0, 0, 0)" stroke="rgb(60, 60, 60)" stroke-width="1px" opacity="0.25"></line><line x1="344.03846153846155" y1="0" x2="344.03846153846155" y2="378" fill="rgb(0, 0, 0)" stroke="rgb(60, 60, 60)" stroke-width="1px" opacity="0.25"></line><line x1="412.84615384615387" y1="0" x2="412.84615384615387" y2="378" fill="rgb(0, 0, 0)" stroke="rgb(60, 60, 60)" stroke-width="1px" opacity="0.25"></line><line x1="481.65384615384613" y1="0" x2="481.65384615384613" y2="378" fill="rgb(0, 0, 0)" stroke="rgb(60, 60, 60)" stroke-width="1px" opacity="0.25"></line><line x1="550.4615384615385" y1="0" x2="550.4615384615385" y2="378" fill="rgb(0, 0, 0)" stroke="rgb(60, 60, 60)" stroke-width="1px" opacity="0.25"></line><line x1="619.2692307692307" y1="0" x2="619.2692307692307" y2="378" fill="rgb(0, 0, 0)" stroke="rgb(60, 60, 60)" stroke-width="1px" opacity="0.25"></line><line x1="688.0769230769231" y1="0" x2="688.0769230769231" y2="378" fill="rgb(0, 0, 0)" stroke="rgb(60, 60, 60)" stroke-width="1px" opacity="0.25"></line><line x1="756.8846153846154" y1="0" x2="756.8846153846154" y2="378" fill="rgb(0, 0, 0)" stroke="rgb(60, 60, 60)" stroke-width="1px" opacity="0.25"></line><line x1="825.6923076923077" y1="0" x2="825.6923076923077" y2="378" fill="rgb(0, 0, 0)" stroke="rgb(60, 60, 60)" stroke-width="1px" opacity="0.25"></line><line x1="894.5" y1="0" x2="894.5" y2="378" fill="rgb(0, 0, 0)" stroke="rgb(60, 60, 60)" stroke-width="1px" opacity="0.25"></line></g><g><line x1="0" y1="377.5858279181498" x2="894.5" y2="377.5858279181498" fill="rgb(0, 0, 0)" stroke="rgb(60, 60, 60)" stroke-width="1px" opacity="0.25"></line><line x1="0" y1="368.69833227576777" x2="894.5" y2="368.69833227576777" fill="rgb(0, 0, 0)" stroke="rgb(60, 60, 60)" stroke-width="1px" opacity="0.25"></line><line x1="0" y1="360.85900554092177" x2="894.5" y2="360.85900554092177" fill="rgb(0, 0, 0)" stroke="rgb(60, 60, 60)" stroke-width="1px" opacity="0.25"></line><line x1="0" y1="353.84648881819805" x2="894.5" y2="353.84648881819805" fill="rgb(0, 0, 0)" stroke="rgb(60, 60, 60)" stroke-width="1px" opacity="0.25"></line><line x1="0" y1="307.71244928130653" x2="894.5" y2="307.71244928130653" fill="rgb(0, 0, 0)" stroke="rgb(60, 60, 60)" stroke-width="1px" opacity="0.25"></line><line x1="0" y1="280.7257661454378" x2="894.5" y2="280.7257661454378" fill="rgb(0, 0, 0)" stroke="rgb(60, 60, 60)" stroke-width="1px" opacity="0.25"></line><line x1="0" y1="261.578409744415" x2="894.5" y2="261.578409744415" fill="rgb(0, 0, 0)" stroke="rgb(60, 60, 60)" stroke-width="1px" opacity="0.25"></line><line x1="0" y1="246.72656628684533" x2="894.5" y2="246.72656628684533" fill="rgb(0, 0, 0)" stroke="rgb(60, 60, 60)" stroke-width="1px" opacity="0.25"></line><line x1="0" y1="234.5917266085463" x2="894.5" y2="234.5917266085463" fill="rgb(0, 0, 0)" stroke="rgb(60, 60, 60)" stroke-width="1px" opacity="0.25"></line><line x1="0" y1="224.3318658499056" x2="894.5" y2="224.3318658499056" fill="rgb(0, 0, 0)" stroke="rgb(60, 60, 60)" stroke-width="1px" opacity="0.25"></line><line x1="0" y1="215.44437020752355" x2="894.5" y2="215.44437020752355" fill="rgb(0, 0, 0)" stroke="rgb(60, 60, 60)" stroke-width="1px" opacity="0.25"></line><line x1="0" y1="207.60504347267755" x2="894.5" y2="207.60504347267755" fill="rgb(0, 0, 0)" stroke="rgb(60, 60, 60)" stroke-width="1px" opacity="0.25"></line><line x1="0" y1="200.5925267499538" x2="894.5" y2="200.5925267499538" fill="rgb(0, 0, 0)" stroke="rgb(60, 60, 60)" stroke-width="1px" opacity="0.25"></line><line x1="0" y1="154.4584872130623" x2="894.5" y2="154.4584872130623" fill="rgb(0, 0, 0)" stroke="rgb(60, 60, 60)" stroke-width="1px" opacity="0.25"></line><line x1="0" y1="127.47180407719358" x2="894.5" y2="127.47180407719358" fill="rgb(0, 0, 0)" stroke="rgb(60, 60, 60)" stroke-width="1px" opacity="0.25"></line><line x1="0" y1="108.32444767617085" x2="894.5" y2="108.32444767617085" fill="rgb(0, 0, 0)" stroke="rgb(60, 60, 60)" stroke-width="1px" opacity="0.25"></line><line x1="0" y1="93.47260421860108" x2="894.5" y2="93.47260421860108" fill="rgb(0, 0, 0)" stroke="rgb(60, 60, 60)" stroke-width="1px" opacity="0.25"></line><line x1="0" y1="81.33776454030209" x2="894.5" y2="81.33776454030209" fill="rgb(0, 0, 0)" stroke="rgb(60, 60, 60)" stroke-width="1px" opacity="0.25"></line><line x1="0" y1="71.07790378166135" x2="894.5" y2="71.07790378166135" fill="rgb(0, 0, 0)" stroke="rgb(60, 60, 60)" stroke-width="1px" opacity="0.25"></line><line x1="0" y1="62.19040813927933" x2="894.5" y2="62.19040813927933" fill="rgb(0, 0, 0)" stroke="rgb(60, 60, 60)" stroke-width="1px" opacity="0.25"></line><line x1="0" y1="54.35108140443333" x2="894.5" y2="54.35108140443333" fill="rgb(0, 0, 0)" stroke="rgb(60, 60, 60)" stroke-width="1px" opacity="0.25"></line><line x1="0" y1="47.33856468170961" x2="894.5" y2="47.33856468170961" fill="rgb(0, 0, 0)" stroke="rgb(60, 60, 60)" stroke-width="1px" opacity="0.25"></line><line x1="0" y1="1.204525144818092" x2="894.5" y2="1.204525144818092" fill="rgb(0, 0, 0)" stroke="rgb(60, 60, 60)" stroke-width="1px" opacity="0.25"></line></g></g></g><g><g><line x1="68.8076923076923" y1="0" x2="68.8076923076923" y2="378" fill="rgb(0, 0, 0)" stroke="rgb(153, 153, 153)" stroke-width="1.5px"></line></g></g><g><g><g><g><g><path stroke="rgb(255, 112, 67)" stroke-width="2px" d="M70.18384615384615,312.03892444293734L71.56,324L72.93615384615384,309.30174895688253L74.3123076923077,321.86668668200326L75.68846153846154,311.0356612797561L77.06461538461538,303.86953675356017L78.44076923076923,304.37841679026224L79.81692307692308,307.77535453144685L81.19307692307692,313.31050718255034L82.56923076923077,312.4484640307009L83.94538461538461,307.30158721898755L85.32153846153847,315.09589342478574L86.69769230769231,308.03540063547126L88.07384615384615,308.2649864136563L89.45,303.11342877425295L90.82615384615384,302.06187319408184L92.2023076923077,308.12966702220797L93.57846153846154,310.00379226187175L94.95461538461538,313.9298884236185L96.33076923076923,315.2011239391903L97.70692307692308,312.2121824988653L99.08307692307693,311.51023260065256L100.45923076923077,312.41166877560744L101.83538461538461,313.82464492175717L103.21153846153847,310.06556368162876L104.58769230769231,309.2285626726514L105.96384615384616,306.5527584640429L107.33999999999999,303.70639877854285L108.71615384615384,309.5061292778885L110.0923076923077,307.2734372719593L111.46846153846154,305.23317903550594L112.84461538461538,302.6621445433746L114.22076923076922,303.54683380061294L115.59692307692308,307.4580512031077L116.97307692307693,312.445809150819L118.34923076923079,309.1512993129768L119.72538461538461,310.1014376790293L121.10153846153845,310.7982757846323L122.47769230769231,308.9936207195112L123.85384615384616,317.13840347483773L125.23000000000002,318.03328253756456L126.60615384615384,312.5382935648216L127.98230769230769,311.7150512569076L129.35846153846154,316.03525886999785L130.73461538461538,317.0474089686551L132.11076923076925,312.0209471363336L133.48692307692306,306.66689987755143L134.86307692307693,295.51674234662255L136.23923076923077,297.92540745997206L137.6153846153846,300.98598281743125L138.99153846153845,302.8159610021951L140.3676923076923,297.82146927808174L141.74384615384616,304.11987718996807L143.12,297.5748421761397L144.49615384615385,300.5897668877926L145.8723076923077,298.4647481677747L147.24846153846153,302.18539733652767L148.6246153846154,303.47180725454916L150.00076923076924,305.07962412789107L151.37692307692308,310.3640821074219L152.75307692307692,306.61832319827874L154.12923076923076,307.6773583639735L155.50538461538463,307.8581755555725L156.88153846153847,311.82243119785835L158.2576923076923,312.0041918389915L159.63384615384615,311.84824050636945L161.01,313.43093290578406L162.38615384615383,314.1279493914081L163.7623076923077,314.6907611444821L165.13846153846154,302.98999436604043L166.51461538461538,308.6140510046724L167.89076923076922,312.29258776081997L169.26692307692306,311.4664497974543L170.64307692307693,313.41473398241095L172.01923076923077,308.7152716755674L173.39538461538461,314.75829451760166L174.77153846153846,310.33344305253786L176.1476923076923,309.1868221367157L177.52384615384616,308.960247249117L178.9,310.6731179970659L180.27615384615385,310.4215310194507L181.6523076923077,312.7013828351117L183.02846153846153,301.2337337303789L184.4046153846154,304.2032504959644L185.78076923076924,309.86766347984445L187.15692307692308,309.43730916094705L188.53307692307692,309.3417186271423L189.90923076923076,308.9537337654617L191.28538461538463,309.2342797093095L192.66153846153847,308.8600125402207L194.0376923076923,307.7405801131698L195.41384615384615,313.5523095917208L196.79,312.76129940671416L198.16615384615386,314.0204109051936L199.5423076923077,312.37960634647743L200.91846153846154,311.7334581198202L202.29461538461538,311.805556312411L203.67076923076922,310.00722043938765L205.0469230769231,310.43349848917956L206.42307692307693,307.0131691773424L207.79923076923077,306.11497400475355L209.17538461538462,307.1289923849174L210.55153846153846,308.7679334835752L211.92769230769233,306.7770043164169L213.30384615384617,308.3299303833554L214.67999999999998,307.67473746165945L216.05615384615385,308.63747316982193L217.4323076923077,306.41448455397347L218.80846153846156,305.1938310850694L220.1846153846154,306.01685722137825L221.5607692307692,306.6947200727523L222.93692307692308,307.3414940525455L224.3130769230769,304.66599376890235L225.68923076923076,306.35393215838775L227.0653846153846,304.55752797004305L228.44153846153844,304.06047434594313L229.8176923076923,303.2506524496123L231.19384615384615,308.8378658808209L232.57000000000002,307.3465270603824L233.94615384615386,305.0394084469993L235.3223076923077,306.0725600404495L236.69846153846157,303.21398516693546L238.07461538461536,304.315252162923L239.45076923076923,302.3948721227004L240.82692307692307,301.6018425512063L242.2030769230769,302.93607487109875L243.57923076923078,303.65456227451784L244.95538461538462,302.85518484945885L246.33153846153846,302.20129435468004L247.70769230769233,301.8471120452283L249.08384615384617,302.22645728257663L250.46000000000004,300.17743464551944L251.83615384615382,299.0048322187255L253.2123076923077,301.12114093198124L254.58846153846153,298.71543048090564L255.96461538461537,298.2616243752363L257.34076923076924,300.1539016829022L258.7169230769231,299.5356225610447L260.0930769230769,300.1188493693879L261.46923076923076,298.90082415435757L262.84538461538466,299.67162356774554L264.2215384615385,297.13006849802014L265.5976923076923,291.1397109440396L266.9738461538461,294.754862111762L268.34999999999997,296.19869284532945L269.72615384615386,292.78492665722797L271.1023076923077,291.98098016384336L272.47846153846154,295.51736438840567L273.8546153846154,291.86376389028726L275.2307692307692,292.22393851409066L276.6069230769231,282.9839608511514L277.9830769230769,286.25667039361366L279.35923076923075,280.6877868507671L280.7353846153846,280.38197871853635L282.11153846153843,281.97710459720145L283.4876923076923,281.12552581801435L284.86384615384617,284.7377357444135L286.24,277.16131946474985L287.61615384615385,279.36767375403286L288.9923076923077,282.66437169105586L290.36846153846153,281.84422113041984L291.7446153846154,277.91367486746196L293.1207692307692,282.3880087111455L294.49692307692305,277.08264233661674L295.8730769230769,273.1486603482298L297.2492307692308,273.64054599855876L298.62538461538463,273.5784634265115L300.0015384615385,271.87666264139403L301.3776923076923,274.6401491331788L302.75384615384615,272.3572403293139L304.13,255.746344737316L305.50615384615384,246.7948758783168L306.8823076923077,236.69569149349397L308.2584615384615,234.63256331895758L309.63461538461536,227.94437584324857L311.01076923076926,227.3827039981149L312.3869230769231,228.66490442882795L313.76307692307694,226.73399683432862L315.1392307692308,230.29653282485737L316.5153846153846,225.7192300334231L317.89153846153846,225.73363093880593L319.2676923076923,223.72228131473258L320.64384615384614,225.23801939400934L322.02,228.9471993761954L323.3961538461538,227.75403372889147L324.77230769230766,230.09963807297095L326.14846153846156,235.67994365097113L327.5246153846154,240.68445842966676L328.90076923076924,245.11593083527967L330.2769230769231,235.87128345960446L331.6530769230769,233.84849879356494L333.02923076923076,238.0734987337374L334.4053846153846,239.8935958634263L335.78153846153845,240.70002387282028L337.1576923076923,242.84517509612905L338.5338461538461,240.42839335240274L339.91,240.14702776051578L341.28615384615387,235.90719044789998L342.6623076923077,226.36858265048718L344.03846153846155,230.59076230761696L345.4146153846154,234.33328869074006L346.79076923076923,233.8889634671983L348.16692307692307,231.30623296248814L349.5430769230769,233.94807837455843L350.91923076923075,232.63977193062735L352.2953846153846,249.75758588987236L353.6715384615385,245.46024937177674L355.04769230769233,240.3365595714126L356.42384615384617,237.02763278343494L357.8,239.43627513405087L359.1761538461538,237.43959524767618L360.5523076923077,230.94642658684037L361.92846153846153,217.2932832767218L363.3046153846154,216.56586612132256L364.6807692307692,217.0518362348534L366.05692307692306,218.91168270521942L367.43307692307695,218.80060793810276L368.8092307692308,205.83094432123403L370.18538461538463,206.79664194417268L371.5615384615385,211.381803571683L372.93769230769226,212.31943319410027L374.31384615384616,212.12623962772372L375.69,207.38843627518042L377.06615384615384,121.58777942971625L378.4423076923077,148.23297688785166L379.8184615384615,170.49903916152505L381.1946153846154,192.81984300013494L382.57076923076926,208.68292127797187L383.9469230769231,215.84932284377282L385.32307692307694,228.32501989351996L386.6992307692307,234.15525679455513L388.0753846153846,239.14870924993784L389.45153846153846,245.30861658549344L390.8276923076923,244.01330952936354L392.20384615384614,239.8456784392853L393.58,239.19670455607516L394.9561538461538,248.0774603733213L396.3323076923077,250.29424752141173L397.70846153846156,242.39770699278571L399.0846153846154,238.3428837044838L400.4607692307692,234.13927016315165L401.8369230769231,239.37621732733604L403.2130769230769,240.88201820275336L404.58923076923077,242.36998555689698L405.9653846153846,244.0271973810498L407.34153846153845,246.90201534797788L408.7176923076923,247.0980145502664L410.0938461538462,242.48360048352424L411.47,244.9646548955543L412.84615384615387,245.65201349227132L414.22230769230765,242.34784171473848L415.59846153846155,241.45174664590698L416.9746153846154,240.8591714041653L418.35076923076923,233.89530938223385L419.7269230769231,231.7641031202068L421.1030769230769,231.8007939415367L422.47923076923075,232.70858131207112L423.85538461538465,229.48106157250643L425.2315384615385,226.24251812330186L426.60769230769233,224.7538382657418L427.9838461538461,224.6032380936784L429.35999999999996,218.93366264648463L430.73615384615385,217.8387749778805L432.1123076923077,216.25649067152608L433.48846153846154,216.9594846495372L434.8646153846154,216.44573653689497L436.2407692307692,216.35145797790565L437.6169230769231,220.5557938427741L438.99307692307696,218.87659189476966L440.3692307692308,221.3435846226188L441.7453846153846,222.6594695886284L443.1215384615384,218.9641621623879L444.4976923076923,221.4628584117974L445.87384615384616,222.4817255183908L447.25,222.50351526014146L448.6261538461538,225.06444187721726L450.0023076923077,222.38245128121542L451.3784615384615,223.33000463680148L452.7546153846154,227.4708443674622L454.1307692307692,225.7745231130843L455.5069230769231,226.35670681773473L456.8830769230769,226.85711225091467L458.2592307692308,226.73902394673553L459.6353846153846,227.66439068394368L461.0115384615384,224.25712889300254L462.3876923076923,226.7749463649087L463.7638461538461,226.23371520511213L465.14000000000004,222.0906865090834L466.5161538461538,221.594235634795L467.8923076923077,222.24730865588717L469.2684615384615,219.7745940768638L470.6446153846154,217.79396838673813L472.02076923076925,222.92537740040794L473.39692307692314,222.59595058656677L474.7730769230769,223.55099382343988L476.1492307692307,220.22038535556723L477.5253846153846,222.27280358516447L478.90153846153845,220.65746452345707L480.27769230769235,220.58629196577638L481.65384615384613,216.96834878738534L483.03000000000003,218.37694295886092L484.4061538461538,216.32634159382428L485.7823076923077,216.9330824822209L487.15846153846155,215.74730626101655L488.53461538461534,211.06801023109654L489.91076923076923,214.21395528762622L491.286923076923,211.17979922609672L492.6630769230769,213.7492933819793L494.03923076923076,211.7830194350937L495.41538461538465,209.711707131598L496.79153846153844,210.4864995959254L498.16769230769233,212.7353118360163L499.5438461538462,212.03188137037628L500.9200000000001,208.2306502601236L502.29615384615386,210.63306811104007L503.67230769230764,212.13314786545823L505.04846153846154,212.61045614201583L506.4246153846154,211.15805603427387L507.8007692307693,212.8923495512314L509.17692307692306,213.96788234541307L510.55307692307696,211.97866829528277L511.92923076923074,212.3949074314174L513.3053846153847,213.4205158030142L514.6815384615385,212.76021471755155L516.0576923076923,211.3344601363067L517.4338461538462,210.17297050037175L518.81,210.5313405422551L520.1861538461538,212.36894286419593L521.5623076923076,214.6646050327544L522.9384615384615,213.9434762407517L524.3146153846154,213.95638620552558L525.6907692307693,210.0816960941334L527.0669230769231,211.58836784563366L528.443076923077,210.67312049122498L529.8192307692308,211.68273541119308L531.1953846153846,210.23049184885608L532.5715384615385,208.13619720117373L533.9476923076923,210.25696373884116L535.3238461538461,215.1432685751291L536.6999999999999,214.8361499223476L538.0761538461538,211.8806879984079L539.4523076923077,211.22590356413622L540.8284615384616,207.7702355343447L542.2046153846154,211.37523389125013L543.5807692307692,211.06314361867905L544.9569230769231,213.3177662095767L546.3330769230769,213.0866544393475L547.7092307692308,211.38492999147783L549.0853846153846,212.61129493535253L550.4615384615385,212.81699193461625L551.8376923076924,211.83775929522716L553.2138461538462,214.41796268592248L554.59,211.51638526917122L555.9661538461538,211.65631403379285L557.3423076923077,212.84606818487984L558.7184615384615,210.19266728308781L560.0946153846154,209.62212603381403L561.4707692307692,206.64006267722826L562.8469230769231,205.79836722781005L564.2230769230769,207.47083179903237L565.5992307692308,208.31540801643982L566.9753846153847,210.46351880303598L568.3515384615386,210.57707355699407L569.7276923076923,209.52370733383782L571.1038461538461,212.25604963009314L572.48,212.1093475328777L573.8561538461538,210.91303162264242L575.2323076923077,212.7654844036924L576.6084615384615,213.09041696656288L577.9846153846154,215.23997184544885L579.3607692307692,209.82303004696095L580.7369230769231,211.98895320869124L582.113076923077,213.2068180093516L583.4892307692307,215.02567328739266L584.8653846153846,211.73979037985518L586.2415384615384,211.8035694402002L587.6176923076923,211.9789419579139L588.9938461538461,215.62902165480932L590.37,213.61877750322458L591.7461538461538,211.33145753191815L593.1223076923077,212.20477711751312L594.4984615384616,212.97107908496105L595.8746153846155,214.24622324809815L597.2507692307693,213.08175644215066L598.626923076923,216.6995837878919L600.003076923077,215.36831556627865L601.3792307692307,213.24282886891515L602.7553846153846,214.43536073929113L604.1315384615384,213.43237895511947L605.5076923076923,211.50872933116779L606.8838461538461,217.15339913950268L608.26,217.14270885098875L609.6361538461539,216.25598298482586L611.0123076923077,217.30379821361004L612.3884615384616,214.6295737248388L613.7646153846154,214.57801487820498L615.1407692307693,212.38275047760519L616.516923076923,211.56506125307592L617.8930769230769,208.02245913848066L619.2692307692307,209.785951121922L620.6453846153846,209.28831613457172L622.0215384615385,214.4493761661298L623.3976923076924,214.46952118033997L624.7738461538462,213.89372534489547L626.15,214.47733435672902L627.5261538461539,212.6145501633613L628.9023076923077,211.7129261053025L630.2784615384616,208.46629152450657L631.6546153846153,212.5427437964241L633.0307692307692,213.53025437397494L634.406923076923,211.35326329151957L635.7830769230769,211.71189801983056L637.1592307692308,210.440510404912L638.5353846153846,210.20884798307088L639.9115384615385,209.3503633754616L641.2876923076923,208.9054006457228L642.6638461538462,212.47380475634122L644.04,211.96594532015317L645.4161538461539,209.49270174586866L646.7923076923076,212.5168099026167L648.1684615384615,213.42031045174093L649.5446153846153,213.47262644274386L650.9207692307692,210.1540899335578L652.2969230769231,208.26843057669197L653.6730769230769,207.790501161005L655.0492307692308,206.57699152055932L656.4253846153846,206.12546757133455L657.8015384615385,204.67577640431122L659.1776923076923,204.38096032768289L660.5538461538462,203.73015390791383L661.93,201.77613834386338L663.3061538461538,201.32236845858992L664.6823076923077,202.57640796792026L666.0584615384615,206.2295070704458L667.4346153846154,202.6279325118506L668.8107692307692,201.94000078691428L670.1869230769231,206.83028693704156L671.5630769230769,205.76223435982848L672.9392307692308,203.65840022835667L674.3153846153846,204.2216960303341L675.6915384615385,202.8551592446375L677.0676923076923,202.62065546875084L678.4438461538462,201.58528934699393L679.82,204.42535390317877L681.1961538461538,200.83680846251477L682.5723076923077,195.47724305568738L683.9484615384615,197.4405701324048L685.3246153846154,198.80510713111653L686.7007692307692,196.97944166637754L688.0769230769231,184.29670553347884L689.4530769230769,190.7891416434273L690.8292307692308,190.86500951378906L692.2053846153847,195.29183805281863L693.5815384615385,203.03880443276483L694.9576923076924,201.81743626505175L696.3338461538461,201.6673222744858L697.71,204.91105700483484L699.0861538461538,202.38483079015174L700.4623076923077,201.25400348518642L701.8384615384615,199.18042439100049L703.2146153846154,195.978092712741L704.5907692307692,196.54324943139147L705.9669230769231,198.5582667929108L707.343076923077,201.11476392760548L708.7192307692308,203.00954236799913L710.0953846153847,113.5717139056834L711.4715384615384,137.0708156219438L712.8476923076923,156.35825126533246L714.2238461538461,168.52525689750783L715.6,180.8420988105654L716.9761538461538,192.69701861624768L718.3523076923076,194.58520512653126L719.7284615384615,191.2379959530105L721.1046153846154,192.6046782595556L722.4807692307693,193.9515803016908L723.8569230769231,198.1172571711292L725.233076923077,197.39922562480535L726.6092307692307,192.00369081774932L727.9853846153846,123.54145597888936L729.3615384615384,92.9431286705256L730.7376923076923,79.5109404085187L732.1138461538461,106.6727661210698L733.49,85.91422368237545L734.8661538461539,76.17508547370187L736.2423076923077,70.98588702929487L737.6184615384616,67.7834020712956L738.9946153846154,66.4501931208041L740.3707692307693,65.46473046215033L741.746923076923,64.94174505868546L743.123076923077,64.27463479879395L744.4992307692307,60.534042091769095L745.8753846153845,58.5112378203321L747.2515384615384,87.95693534093658L748.6276923076923,72.95794018126679L750.0038461538462,65.21853981734017L751.38,92.79424815472316L752.7561538461539,115.34285684778217L754.1323076923077,84.5515181336637L755.5084615384616,71.28595836739004L756.8846153846154,64.58802549424075L758.2607692307693,60.818857296240765L759.636923076923,58.75080182011129L761.0130769230769,86.6866046413594L762.3892307692308,112.1602332634987L763.7653846153846,116.93966995956714L765.1415384615385,135.22464002930394L766.5176923076923,149.86018220934005L767.8938461538462,96.02502633977309L769.27,76.53902684864391L770.6461538461539,67.39430288825878L772.0223076923077,61.982969562500614L773.3984615384614,89.25881008147576L774.7746153846153,117.78874135000626L776.1507692307692,138.22758419234174L777.5269230769231,157.4666581449646L778.9030769230769,160.5644793973706L780.2792307692308,171.43813432461286L781.6553846153846,178.10636370600946L783.0315384615385,176.26515784161342L784.4076923076923,156.85064829964585L785.7838461538462,149.0180374151434L787.16,159.49077387050409L788.5361538461538,146.35418611419146L789.9123076923076,149.61053428362126L791.2884615384615,163.7820694530917L792.6646153846154,180.56457909522598L794.0407692307692,188.72238858413886L795.4169230769231,197.4385405392522L796.7930769230769,196.4160072533591L798.1692307692308,104.85749463753342L799.5453846153846,108.46548541975L800.9215384615384,81.61576128314658L802.2976923076923,69.15052322838801L803.6738461538462,63.499362069213646L805.0500000000001,60.11422344728584L806.4261538461539,57.57422703272567L807.8023076923077,56.394940916585426L809.1784615384615,55.770098586104496L810.5546153846154,55.48977661213843L811.9307692307692,54.611202424312864L813.306923076923,54.6178518600168L814.6830769230769,54.589782174616346L816.0592307692307,55.34614041595404L817.4353846153846,54.68645090974775L818.8115384615385,54.466164850258906L820.1876923076924,54.575647801422974L821.5638461538462,54.171655016745945L822.94,54L824.3161538461538,54.03514347620893L825.6923076923077,54.116460497407616L827.0684615384615,54.14392691791926L828.4446153846153,54.26196642131367L829.8207692307692,54.35170139560773L831.1969230769231,54.29040696541966L832.573076923077,54.26193835605471L833.9492307692308,54.435434768798245L835.3253846153847,54.54976896851565L836.7015384615385,54.55119948494092L838.0776923076924,54.57315864865075L839.4538461538461,54.528560220017255L840.8299999999999,54.24125126062495L842.2061538461538,55.00904549186191L843.5823076923076,54.7868991333105L844.9584615384615,54.54885189655289L846.3346153846154,54.50750571663946L847.7107692307693,54.39182745235507L849.0869230769231,54.242572985746676L850.463076923077,54.26579982852917L851.8392307692308,54.1777299264391L853.2153846153847,54.121672712537645L854.5915384615384,54.10518724717065L855.9676923076922,54.19961508743188L857.3438461538461,54.19968383359094L858.7199999999999,54.14750547846165L860.0961538461539,54.13771209321396L861.4723076923077,79.68071000225808L862.8484615384616,68.27791981816495L864.2246153846154,62.32256394710021L865.6007692307693,58.97362302588141L866.9769230769231,57.20259821996126L868.3530769230769,56.347179117464464L869.7292307692308,55.500031361206425L871.1053846153845,54.99339214052634L872.4815384615384,54.66641221809783L873.8576923076923,54.90140883880207L875.2338461538462,54.57323973637915L876.61,54.246423626396506L877.9861538461539,54.07663075216118" style="fill: none;" fill="none"></path></g></g></g></g><g opacity="0.2"><g><g><g><path stroke="rgb(255, 112, 67)" stroke-width="2px" d="M70.18384615384615,312.03892444293734L71.56,332.36641646768754L72.93615384615384,297.71125755593584L74.3123076923077,340.51441758975216L75.68846153846154,299.1187830756698L77.06461538461538,295.0782647376027L78.44076923076923,305.11295074293946L79.81692307692308,313.06113165015296L81.19307692307692,322.41854942099803L82.56923076923077,311.1886821741788L83.94538461538461,300.2988147849791L85.32153846153847,328.7671286721946L86.69769230769231,298.6959471673259L88.07384615384615,308.61040393331064L89.45,296.06962841613904L90.82615384615384,300.51576821889313L92.2023076923077,318.4112245382502L93.57846153846154,312.91729849374667L94.95461538461538,320.2900067504332L96.33076923076923,317.15457508264615L97.70692307692308,307.96645499631404L99.08307692307693,310.4710190498893L100.45923076923077,313.7871180811188L101.83538461538461,316.0019788792273L103.21153846153847,304.7973522338893L104.58769230769231,307.99247562570224L105.96384615384616,302.7305507998627L107.33999999999999,299.65285169416575L108.71615384615384,319.2797391408092L110.0923076923077,304.0588443576768L111.46846153846154,302.28547221416915L112.84461538461538,298.98273304691145L114.22076923076922,304.89631502964465L115.59692307692308,313.7928066876482L116.97307692307693,320.7070465951319L118.34923076923079,304.4964809033323L119.72538461538461,311.5525715741692L121.10153846153845,311.8574063449121L122.47769230769231,306.3751953433299L123.85384615384616,331.59725289402314L125.23000000000002,319.3985734484575L126.60615384615384,305.0628596050079L127.98230769230769,310.49897094127385L129.35846153846154,323.091699861508L130.73461538461538,318.5950925945978L132.11076923076925,305.12845130152806L133.48692307692306,299.3658577019693L134.86307692307693,281.66436794708983L136.23923076923077,301.71017583752894L137.6153846153846,305.8580858654316L138.99153846153845,305.65887298379414L140.3676923076923,290.96908762562293L141.74384615384616,314.84908171153194L143.12,288.82566333584566L144.49615384615385,305.3847974386572L145.8723076923077,295.39925928682186L147.24846153846153,308.18803519257176L148.6246153846154,305.4492778115086L150.00076923076924,307.5666062105698L151.37692307692308,319.1718451490317L152.75307692307692,301.3675406495271L154.12923076923076,309.2981930506395L155.50538461538463,308.13032574579887L156.88153846153847,318.2500863420665L158.2576923076923,312.2777668929271L159.63384615384615,311.6149965207546L161.01,315.87785649517684L162.38615384615383,315.18735468245137L163.7623076923077,315.54400407431285L165.13846153846154,288.5750733337469L166.51461538461538,318.0559557673907L167.89076923076922,318.2221838528267L169.26692307692306,310.24615728946594L170.64307692307693,316.44845441113637L172.01923076923077,302.2351369883866L173.39538461538461,324.99551065289984L174.77153846153846,304.20317131455295L176.1476923076923,307.50309874575345L177.52384615384616,308.6218245876047L178.9,313.3280241341791L180.27615384615385,310.0459247397582L181.6523076923077,316.27462979071754L183.02846153846153,287.0558367423758L184.4046153846154,308.921759072235L185.78076923076924,319.38554657844526L187.15692307692308,308.7969505661829L188.53307692307692,309.19858975022953L189.90923076923076,308.37596446545604L191.28538461538463,309.6573284066628L192.66153846153847,308.30252854804354L194.0376923076923,306.09596100107984L195.41384615384615,323.3486751565135L196.79,311.5921362353911L198.16615384615386,315.95489846820806L199.5423076923077,309.99183704966896L200.91846153846154,310.7758473582183L202.29461538461538,311.91385025121235L203.67076923076922,307.39766541389895L205.0469230769231,311.0780787653253L206.42307692307693,302.19123660119976L207.79923076923077,304.7900074825271L209.17538461538462,308.6795884202707L210.55153846153846,311.30459452333514L211.92769230769233,303.89800880045743L213.30384615384617,310.7294452223287L214.67999999999998,306.7038848775847L216.05615384615385,310.1082020135578L217.4323076923077,303.2133041031907L218.80846153846156,303.40382627368876L220.1846153846154,307.2707992531866L221.5607692307692,307.72463741197805L222.93692307692308,308.3235944008604L224.3130769230769,300.84419325329753L225.68923076923076,308.9689226367378L227.0653846153846,301.95068488808016L228.44153846153844,303.3217853973347L229.8176923076923,302.05410013361615L231.19384615384615,318.21052224986784L232.57000000000002,305.1703617841993L233.94615384615386,301.72208437356073L235.3223076923077,307.65299432595214L236.69846153846157,299.14391919528384L238.07461538461536,306.0020909235167L239.45076923076923,299.6143587588379L240.82692307692307,300.42973831801055L242.2030769230769,304.9889542020526L243.57923076923078,304.7470487234573L244.95538461538462,301.67383694349576L246.33153846153846,301.23234830636227L247.70769230769233,301.3193476395689L249.08384615384617,302.79956011989725L250.46000000000004,297.2175317309155L251.83615384615382,297.2837768697043L253.2123076923077,304.42738817669897L254.58846153846153,295.26244142490737L255.96461538461537,297.58666457215446L257.34076923076924,303.09718160923836L258.7169230769231,298.61884126474837L260.0930769230769,301.00338553268716L261.46923076923076,297.1145875481738L262.84538461538466,300.84482301272305L264.2215384615385,293.490933137336L265.5976923076923,283.0578326154484L266.9738461538461,300.5747570397217L268.34999999999997,298.4249205945449L269.72615384615386,287.97169309295276L271.1023076923077,290.79298017214916L272.47846153846154,301.20133425655627L273.8546153846154,286.7339347240578L275.2307692307692,292.76788155928375L276.6069230769231,271.1586373200405L277.9830769230769,291.4887961723744L279.35923076923075,273.1212500409713L280.7353846153846,279.9258850196257L282.11153846153843,284.4438472383911L283.4876923076923,279.86824492129L284.86384615384617,290.55254719945157L286.24,267.20320499678365L287.61615384615385,282.82071526737536L288.9923076923077,287.9374046183085L290.36846153846153,280.63263874935626L291.7446153846154,272.42152993580794L293.1207692307692,289.71962039362455L294.49692307692305,269.84202698144736L295.8730769230769,267.6520424078524L297.2492307692308,274.3852584386129L298.62538461538463,273.48544801229065L300.0015384615385,269.4028677605752L301.3776923076923,279.0132054767193L302.75384615384615,269.07330271759383L304.13,236.70059017281324L305.50615384615384,235.2863423968341L306.8823076923077,223.9437334497845L308.2584615384615,231.65304094463644L309.63461538461536,219.02495330632257L311.01076923076926,226.54898476934886L312.3869230769231,230.63574393587697L313.76307692307694,223.9387717818265L315.1392307692308,236.02558317608248L316.5153846153846,219.39432523490734L317.89153846153846,225.75523814087953L319.2676923076923,220.81482674781662L320.64384615384614,227.5783821895486L322.02,234.9299320069288L323.3961538461538,226.00345694033584L324.77230769230766,233.7807206340929L326.14846153846156,245.03962869327066L327.5246153846154,248.9763785143476L328.90076923076924,252.3708411561863L330.2769230769231,224.04085610100003L331.6530769230769,230.92511685998366L333.02923076923076,244.96084316367237L334.4053846153846,242.7206113407567L335.78153846153845,241.92828768735225L337.1576923076923,246.198385189946L338.5338461538461,236.9601996906298L339.91,239.72719709700002L341.28615384615387,230.0144940886743L342.6623076923077,214.21836862932815L344.03846153846155,237.47310791420404L345.4146153846154,240.37392134976324L346.79076923076923,233.22798830228245L348.16692307692307,227.61085286575283L349.5430769230769,238.118515667533L350.91923076923075,230.72430353650407L352.2953846153846,288.34094561991947L353.6715384615385,239.49355703403305L355.04769230769233,233.32233433217525L356.42384615384617,232.353628283812L357.8,243.2210060378418L359.1761538461538,234.55258310469605L360.5523076923077,222.25912792235795L361.92846153846153,200.95700059191063L363.3046153846154,215.48943298186194L364.6807692307692,217.7875099831301L366.05692307692306,221.80268383048912L367.43307692307695,218.6343425809651L368.8092307692308,190.1546184807861L370.18538461538463,208.27197936818555L371.5615384615385,218.91238438383238L372.93769230769226,213.7511193584451L374.31384615384616,211.83749668077652L375.69,200.85971421439228L377.06615384615384,72.62825088335399L378.4423076923077,237.50405567782215L379.8184615384615,230.8136208202971L381.1946153846154,253.4191092048527L382.57076923076926,243.0944098555371L383.9469230769231,228.29300371371278L385.32307692307694,252.948950022664L386.6992307692307,243.9867344568828L388.0753846153846,247.42037135121245L389.45153846153846,255.7703202474636L390.8276923076923,242.11642267442735L392.20384615384614,234.0461120201976L393.58,238.23495643552405L394.9561538461538,264.1138651046676L396.3323076923077,253.7643307162444L397.70846153846156,232.0725192073708L399.0846153846154,232.68927850440224L400.4607692307692,228.29326548060342L401.8369230769231,248.09599812098992L403.2130769230769,243.20658914779705L404.58923076923077,244.66623140600132L405.9653846153846,246.59304936803065L407.34153846153845,251.4613863370913L408.7176923076923,247.39309983716706L410.0938461538462,236.11146939817502L411.47,248.86876821372454L412.84615384615387,246.69654729984444L414.22230769230765,237.68016409122873L415.59846153846155,240.12982691292154L416.9746153846154,239.98008481175387L418.35076923076923,224.65028666788697L419.7269230769231,228.6900301829402L421.1030769230769,231.85586812595162L422.47923076923075,234.09390845107603L423.85538461538465,224.91552045718382L425.2315384615385,221.66227135042442L426.60769230769233,222.58144778681952L427.9838461538461,224.37797484860846L429.35999999999996,211.24334788412813L430.73615384615385,216.22949123407722L432.1123076923077,213.95143390386974L433.48846153846154,218.02809699453556L434.8646153846154,215.68247412477956L436.2407692307692,216.2102900656375L437.6169230769231,227.4065257454833L438.99307692307696,216.43464696299492L440.3692307692308,225.224488164091L441.7453846153846,224.68340137766893L443.1215384615384,213.779546725534L444.4976923076923,225.39610918770754L445.87384615384616,224.03988106697562L447.25,222.53621325409011L448.6261538461538,229.1006368086816L450.0023076923077,218.55182177142447L451.3784615384615,224.77711878268477L452.7546153846154,234.20927089195666L454.1307692307692,223.30844848365572L455.5069230769231,227.2396434692461L456.8830769230769,227.61484613087083L458.2592307692308,226.56228340655701L459.6353846153846,229.077020406956L461.0115384615384,219.45251847058742L462.3876923076923,230.7398011086355L463.7638461538461,225.4300322674135L465.14000000000004,216.3229045959556L466.5161538461538,220.85643418920682L467.8923076923077,223.23909281854966L469.2684615384615,216.229677493272L470.6446153846154,214.92934028883857L472.02076923076925,231.45035770798015L473.39692307692314,222.10484753082747L474.7730769230769,225.00975604320973L476.1492307692307,215.51754520158525L477.5253846153846,225.47521123402225L478.90153846153845,218.3056665934174L480.27769230769235,220.47967562822157L481.65384615384613,211.88542216548026L483.03000000000003,220.54735771842607L484.4061538461538,213.36424232479035L485.7823076923077,217.8536923698304L487.15846153846155,214.0073354918573L488.53461538461534,204.6134565759742L489.91076923076923,219.230571234416L491.286923076923,206.87313355714585L492.6630769230769,217.79968112983025L494.03923076923076,208.9384126343523L495.41538461538465,206.72080596907085L496.79153846153844,211.66586661078074L498.16769230769233,216.25775078607836L499.5438461538462,210.990481752704L500.9200000000001,202.90724954762842L502.29615384615386,214.4075530123456L503.67230769230764,214.4486297771656L505.04846153846154,213.3328986302344L506.4246153846154,209.03720659161687L507.8007692307693,215.5815837281945L509.17692307692306,215.6144883806854L510.55307692307696,209.1020640106283L511.92923076923074,213.02418801216874L513.3053846153847,214.98918381081006L514.6815384615385,211.78188552092072L516.0576923076923,209.2515081679226L517.4338461538462,208.46787840012522L518.81,211.0725397871754L520.1861538461538,215.2241246609599L521.5623076923076,218.26375564462904L522.9384615384615,212.87622450380078L524.3146153846154,213.97575584911476L525.6907692307693,204.66234553879966L527.0669230769231,213.91432251189963L528.443076923077,209.3234237190882L529.8192307692308,213.22646735635342L531.1953846153846,208.10986495074212L532.5715384615385,205.1133604537616L533.9476923076923,213.5704659472224L535.3238461538461,223.21920763175302L536.6999999999999,214.37811286468616L538.0761538461538,207.67988333666236L539.4523076923077,210.25564892761966L540.8284615384616,202.90149795008347L542.2046153846154,217.17758387610894L543.5807692307692,210.59773505598332L544.9569230769231,216.84971124416884L546.3330769230769,212.74148455096704L547.7092307692308,208.91124265364923L549.0853846153846,214.49428091184285L550.4615384615385,213.12673432618953L551.8376923076924,210.39540487601772L553.2138461538462,218.48609796887143L554.59,207.38823678329535L555.9661538461538,211.86676032536667L557.3423076923077,214.6715522588428L558.7184615384615,206.40094456061342L560.0946153846154,208.77538086189946L561.4707692307692,202.4034403593917L562.8469230769231,204.55545157821552L564.2230769230769,210.0610688911003L565.5992307692308,209.60271356206766L566.9753846153847,213.8215508360268L568.3515384615386,210.74776977494565L569.7276923076923,207.9742715573596L571.1038461538461,216.57713462635363L572.48,211.8898988975064L573.8561538461538,209.15793414361903L575.2323076923077,215.64457614453633L576.6084615384615,213.58080965936193L577.9846153846154,218.6003569049574L579.3607692307692,202.4440643029961L580.7369230769231,215.3760183912229L582.113076923077,215.07644618184509L583.4892307692307,217.85069132647808L584.8653846153846,207.09645720684614L586.2415384615384,211.89935277123337L587.6176923076923,212.24287020993873L588.9938461538461,221.50933194584934L590.37,210.7128630474322L591.7461538461538,208.04143456078265L593.1223076923077,213.53662559410878L594.4984615384616,214.13733301104654L595.8746153846155,216.2059496995572L597.2507692307693,211.37238707406465L598.626923076923,222.52410460114248L600.003076923077,213.42004675781268L601.3792307692307,210.17669069039354L602.7553846153846,216.26520472483782L604.1315384615384,211.95568862389652L605.5076923076923,208.72364630330787L606.8838461538461,226.6340954405343L608.26,217.12667663699654L609.6361538461539,214.94765877769942L611.0123076923077,218.90711530940249L612.3884615384616,210.80950895570135L613.7646153846154,214.50075141888996L615.1407692307693,209.21992067907934L616.516923076923,210.35706003923602L617.8930769230769,203.0388254982192L619.2692307692307,212.5220195297261L620.6453846153846,208.5487711918454L622.0215384615385,223.02899706604236L623.3976923076924,214.49975013874976L624.7738461538462,213.03926510950183L626.15,215.3624566128358L627.5261538461539,209.9146227554498L628.9023076923077,210.38298552978966L630.2784615384616,203.87525477750273L631.6546153846153,219.1675907136162L633.0307692307692,215.03954773661923L634.406923076923,208.21573163565682L635.7830769230769,212.2534996989709L637.1592307692308,208.57783744446238L638.5353846153846,209.86285924648658L639.9115384615385,208.08304808314134L641.2876923076923,208.24348498187356L642.6638461538462,218.2129772188299L644.04,211.21134901001264L645.4161538461539,205.94706027044913L646.7923076923076,217.32733355159723L648.1684615384615,214.79898250291606L649.5446153846153,213.5511776136615L650.9207692307692,205.46730223846032L652.2969230769231,205.5364770640748L653.6730769230769,207.07998083791918L655.0492307692308,204.79722987269304L656.4253846153846,205.45387357959018L657.8015384615385,202.55877816360106L659.1776923076923,203.94117038716283L660.5538461538462,202.76572279754038L661.93,198.94864070335115L663.3061538461538,200.6474620724984L664.6823076923077,204.5029143786979L666.0584615384615,212.11504404893537L667.4346153846154,197.5665561661359L668.8107692307692,200.92125423172473L670.1869230769231,214.91348261551374L671.5630769230769,204.1916196222673L672.9392307692308,200.62231543250283L674.3153846153846,205.07568065357597L675.6915384615385,200.85656350954397L677.0676923076923,202.27044175549239L678.4438461538462,200.0618268080793L679.82,208.92647512346036L681.1961538461538,195.7925945163692L682.5723076923077,188.16935753616642L683.9484615384615,200.49861591637028L685.3246153846154,200.9058447600437L686.7007692307692,194.3315381640965L688.0769230769231,168.90143907470096L689.4530769230769,201.89585534317453L690.8292307692308,190.97897371771552L692.2053846153847,202.5384463538581L693.5815384615385,216.66731352022032L694.9576923076924,200.0264068315075L696.3338461538461,201.4427842015133L697.71,210.09382548732097L699.0861538461538,198.7666553505408L700.4623076923077,199.592990766297L701.8384615384615,196.18637219171595L703.2146153846154,191.4461738834685L704.5907692307692,197.40008560785049L705.9669230769231,201.70000900376368L707.343076923077,205.14362296855919L708.7192307692308,205.95685690746043L710.0953846153847,63.914853374966924L711.4715384615384,204.1760611528015L712.8476923076923,203.0555746822014L714.2238461538461,192.34737990210772L715.6,205.05174183680472L716.9761538461538,215.7219234217771L718.3523076923076,197.52188698268225L719.7284615384615,186.51309239728798L721.1046153846154,194.70880597091687L722.4807692307693,196.0244613019873L723.8569230769231,204.89957773409594L725.233076923077,196.33649684407706L726.6092307692307,184.65122889016294L727.9853846153846,78.62482972340763L729.3615384615384,63.65316143532465L730.7376923076923,63.38655379198855L732.1138461538461,200.53822021499994L733.49,63.42895100569689L734.8661538461539,63.808405843691844L736.2423076923077,63.88987032808171L737.6184615384616,63.251278546682215L738.9946153846154,64.49915328128412L740.3707692307693,64.01336593926362L741.746923076923,64.1648923555577L743.123076923077,63.286341486949595L744.4992307692307,55.290029690218205L745.8753846153845,55.587828584877684L747.2515384615384,207.7527717348788L748.6276923076923,55.360125805572295L750.0038461538462,55.073064632404055L751.38,190.61216637809986L752.7561538461539,177.1426494475076L754.1323076923077,55.14409271292885L755.5084615384616,55.32228378774846L756.8846153846154,55.65704237196934L758.2607692307693,55.53741281070808L759.636923076923,55.764428380706306L761.0130769230769,188.16709081371343L762.3892307692308,192.1665911487344L763.7653846153846,124.82128034274137L765.1415384615385,178.01671131977315L766.5176923076923,180.49766041982897L767.8938461538462,55.73256305088381L769.27,55.06779464728294L770.6461538461539,55.6732520366329L772.0223076923077,54.61094577725794L773.3984615384614,184.1874415898501L774.7746153846153,225.8401999601031L776.1507692307692,189.79378190068107L777.5269230769231,203.96883702643206L778.9030769230769,165.49957052025852L780.2792307692308,192.04008094899532L781.6553846153846,189.5579258567989L783.0315384615385,173.59546514904304L784.4076923076923,135.43742678918605L785.7838461538462,138.76585274390646L787.16,179.13750411381494L788.5361538461538,130.51544850095988L789.9123076923076,154.814782055973L791.2884615384615,193.06409354096814L792.6646153846154,217.99941223757642L794.0407692307692,203.2086885347457L795.4169230769231,213.11733129350554L796.7930769230769,194.91107233113974L798.1692307692308,54.81444758696631L799.5453846153846,114.27300581786983L800.9215384615384,54.72054096926871L802.2976923076923,53.96991343179002L803.6738461538462,55.831652341355436L805.0500000000001,55.338957279669216L806.4261538461539,53.93722237844969L807.8023076923077,54.664287740057034L809.1784615384615,54.84369810599702L810.5546153846154,55.071495000129175L811.9307692307692,53.31471082675853L813.306923076923,54.62782725932766L814.6830769230769,54.54769983032952L816.0592307692307,56.49704223337096L817.4353846153846,53.70901678242842L818.8115384615385,54.1370967914184L820.1876923076924,54.740210645049956L821.5638461538462,53.57022678287751L822.94,53.743344707984704L824.3161538461538,54.087893508261516L825.6923076923077,54.238622614038036L827.0684615384615,54.18514781285603L828.4446153846153,54.43941912538469L829.8207692307692,54.48653111039613L831.1969230769231,54.198571029729464L832.573076923077,54.219258260668425L833.9492307692308,54.69653032775955L835.3253846153847,54.72163937626402L836.7015384615385,54.55334531722934L838.0776923076924,54.60611098448095L839.4538461538461,54.46171856011762L840.8299999999999,53.81259995322904L842.2061538461538,56.177603826080826L843.5823076923076,54.45506365922955L844.9584615384615,54.1933698310861L846.3346153846154,54.445534565757896L847.7107692307693,54.21868615629626L849.0869230769231,54.01931698231954L850.463076923077,54.300655297749074L851.8392307692308,54.04584319299158L853.2153846153847,54.037675317870935L854.5915384615384,54.08046670269397L855.9676923076922,54.34150851573003L857.3438461538461,54.19978695296277L858.7199999999999,54.06931456403794L860.0961538461539,54.12302471672274L861.4723076923077,160.19688723651961L862.8484615384616,54.166267131493555L864.2246153846154,54.283207270101855L865.6007692307693,54.24641860460065L866.9769230769231,54.6314035107506L868.3530769230769,55.08431778956907L869.7292307692308,54.249190231675016L871.1053846153845,54.24059180406914L872.4815384615384,54.17893469412121L873.8576923076923,55.25546684121554L875.2338461538462,54.08400017633011L876.61,53.75918883331093L877.9861538461539,53.822750853405296" style="fill: none;" fill="none"></path></g></g></g></g></g></g><g transform="translate(58, 378)" clip-path="url(#clip_1)"><clipPath id="clip_1"><rect width="894" height="22"></rect></clipPath><g><g><line x1="0" y1="0" x2="0" y2="5" style="visibility: inherit;" fill="rgb(0, 0, 0)" stroke="rgb(204, 204, 204)" stroke-width="1px"></line><line x1="68.8076923076923" y1="0" x2="68.8076923076923" y2="5" style="visibility: inherit;" fill="rgb(0, 0, 0)" stroke="rgb(204, 204, 204)" stroke-width="1px"></line><line x1="137.6153846153846" y1="0" x2="137.6153846153846" y2="5" style="visibility: inherit;" fill="rgb(0, 0, 0)" stroke="rgb(204, 204, 204)" stroke-width="1px"></line><line x1="206.42307692307693" y1="0" x2="206.42307692307693" y2="5" style="visibility: inherit;" fill="rgb(0, 0, 0)" stroke="rgb(204, 204, 204)" stroke-width="1px"></line><line x1="275.2307692307692" y1="0" x2="275.2307692307692" y2="5" style="visibility: inherit;" fill="rgb(0, 0, 0)" stroke="rgb(204, 204, 204)" stroke-width="1px"></line><line x1="344.03846153846155" y1="0" x2="344.03846153846155" y2="5" style="visibility: inherit;" fill="rgb(0, 0, 0)" stroke="rgb(204, 204, 204)" stroke-width="1px"></line><line x1="412.84615384615387" y1="0" x2="412.84615384615387" y2="5" style="visibility: inherit;" fill="rgb(0, 0, 0)" stroke="rgb(204, 204, 204)" stroke-width="1px"></line><line x1="481.65384615384613" y1="0" x2="481.65384615384613" y2="5" style="visibility: inherit;" fill="rgb(0, 0, 0)" stroke="rgb(204, 204, 204)" stroke-width="1px"></line><line x1="550.4615384615385" y1="0" x2="550.4615384615385" y2="5" style="visibility: inherit;" fill="rgb(0, 0, 0)" stroke="rgb(204, 204, 204)" stroke-width="1px"></line><line x1="619.2692307692307" y1="0" x2="619.2692307692307" y2="5" style="visibility: inherit;" fill="rgb(0, 0, 0)" stroke="rgb(204, 204, 204)" stroke-width="1px"></line><line x1="688.0769230769231" y1="0" x2="688.0769230769231" y2="5" style="visibility: inherit;" fill="rgb(0, 0, 0)" stroke="rgb(204, 204, 204)" stroke-width="1px"></line><line x1="756.8846153846154" y1="0" x2="756.8846153846154" y2="5" style="visibility: inherit;" fill="rgb(0, 0, 0)" stroke="rgb(204, 204, 204)" stroke-width="1px"></line><line x1="825.6923076923077" y1="0" x2="825.6923076923077" y2="5" style="visibility: inherit;" fill="rgb(0, 0, 0)" stroke="rgb(204, 204, 204)" stroke-width="1px"></line><line x1="894.5" y1="0" x2="894.5" y2="5" style="visibility: inherit;" fill="rgb(0, 0, 0)" stroke="rgb(204, 204, 204)" stroke-width="1px"></line></g><g transform="translate(0, 8)"><text x="0" y="0" dx="0em" dy="0.95em" style="text-anchor: middle; visibility: hidden; font-family: &quot;Helvetica Neue&quot;, sans-serif; font-size: 12px; font-weight: 200;" fill="rgb(50, 49, 63)" stroke="none" stroke-width="1px">-50</text><text x="68.8076923076923" y="0" dx="0em" dy="0.95em" style="text-anchor: middle; visibility: inherit; font-family: &quot;Helvetica Neue&quot;, sans-serif; font-size: 12px; font-weight: 200;" fill="rgb(50, 49, 63)" stroke="none" stroke-width="1px">0</text><text x="137.6153846153846" y="0" dx="0em" dy="0.95em" style="text-anchor: middle; visibility: inherit; font-family: &quot;Helvetica Neue&quot;, sans-serif; font-size: 12px; font-weight: 200;" fill="rgb(50, 49, 63)" stroke="none" stroke-width="1px">50</text><text x="206.42307692307693" y="0" dx="0em" dy="0.95em" style="text-anchor: middle; visibility: inherit; font-family: &quot;Helvetica Neue&quot;, sans-serif; font-size: 12px; font-weight: 200;" fill="rgb(50, 49, 63)" stroke="none" stroke-width="1px">100</text><text x="275.2307692307692" y="0" dx="0em" dy="0.95em" style="text-anchor: middle; visibility: inherit; font-family: &quot;Helvetica Neue&quot;, sans-serif; font-size: 12px; font-weight: 200;" fill="rgb(50, 49, 63)" stroke="none" stroke-width="1px">150</text><text x="344.03846153846155" y="0" dx="0em" dy="0.95em" style="text-anchor: middle; visibility: inherit; font-family: &quot;Helvetica Neue&quot;, sans-serif; font-size: 12px; font-weight: 200;" fill="rgb(50, 49, 63)" stroke="none" stroke-width="1px">200</text><text x="412.84615384615387" y="0" dx="0em" dy="0.95em" style="text-anchor: middle; visibility: inherit; font-family: &quot;Helvetica Neue&quot;, sans-serif; font-size: 12px; font-weight: 200;" fill="rgb(50, 49, 63)" stroke="none" stroke-width="1px">250</text><text x="481.65384615384613" y="0" dx="0em" dy="0.95em" style="text-anchor: middle; visibility: inherit; font-family: &quot;Helvetica Neue&quot;, sans-serif; font-size: 12px; font-weight: 200;" fill="rgb(50, 49, 63)" stroke="none" stroke-width="1px">300</text><text x="550.4615384615385" y="0" dx="0em" dy="0.95em" style="text-anchor: middle; visibility: inherit; font-family: &quot;Helvetica Neue&quot;, sans-serif; font-size: 12px; font-weight: 200;" fill="rgb(50, 49, 63)" stroke="none" stroke-width="1px">350</text><text x="619.2692307692307" y="0" dx="0em" dy="0.95em" style="text-anchor: middle; visibility: inherit; font-family: &quot;Helvetica Neue&quot;, sans-serif; font-size: 12px; font-weight: 200;" fill="rgb(50, 49, 63)" stroke="none" stroke-width="1px">400</text><text x="688.0769230769231" y="0" dx="0em" dy="0.95em" style="text-anchor: middle; visibility: inherit; font-family: &quot;Helvetica Neue&quot;, sans-serif; font-size: 12px; font-weight: 200;" fill="rgb(50, 49, 63)" stroke="none" stroke-width="1px">450</text><text x="756.8846153846154" y="0" dx="0em" dy="0.95em" style="text-anchor: middle; visibility: inherit; font-family: &quot;Helvetica Neue&quot;, sans-serif; font-size: 12px; font-weight: 200;" fill="rgb(50, 49, 63)" stroke="none" stroke-width="1px">500</text><text x="825.6923076923077" y="0" dx="0em" dy="0.95em" style="text-anchor: middle; visibility: inherit; font-family: &quot;Helvetica Neue&quot;, sans-serif; font-size: 12px; font-weight: 200;" fill="rgb(50, 49, 63)" stroke="none" stroke-width="1px">550</text><text x="894.5" y="0" dx="0em" dy="0.95em" style="text-anchor: middle; visibility: hidden; font-family: &quot;Helvetica Neue&quot;, sans-serif; font-size: 12px; font-weight: 200;" fill="rgb(50, 49, 63)" stroke="none" stroke-width="1px">600</text></g><line x1="0" y1="0" x2="894.5" y2="0" fill="rgb(0, 0, 0)" stroke="rgb(204, 204, 204)" stroke-width="1px"></line></g></g></g></g></svg>